<svg width="356" height="39" viewBox="0 0 356 39" fill="none" xmlns="http://www.w3.org/2000/svg">
<path d="M0.069397 8.19873H114.469" stroke="#D71118" stroke-width="2.4"/>
<path d="M0.069397 19.3987H114.469" stroke="#D71118" stroke-width="2.4"/>
<path d="M0.069397 30.5988H114.469" stroke="#D71118" stroke-width="2.4"/>
<path d="M138.469 5.79871L141.523 15.1961H151.404L143.41 21.004L146.463 30.4013L138.469 24.5934L130.476 30.4013L133.529 21.004L125.535 15.1961H135.416L138.469 5.79871Z" fill="#003399"/>
<path d="M177.669 0.19873L181.98 13.4656H195.93L184.644 21.665L188.955 34.9319L177.669 26.7325L166.384 34.9319L170.695 21.665L159.409 13.4656H173.359L177.669 0.19873Z" fill="#003399"/>
<path d="M216.869 5.79871L219.923 15.1961H229.804L221.81 21.004L224.863 30.4013L216.869 24.5934L208.876 30.4013L211.929 21.004L203.935 15.1961H213.816L216.869 5.79871Z" fill="#003399"/>
<path d="M240.869 8.19873H355.269" stroke="#D71118" stroke-width="2.4"/>
<path d="M240.869 19.3987H355.269" stroke="#D71118" stroke-width="2.4"/>
<path d="M240.869 30.5988H355.269" stroke="#D71118" stroke-width="2.4"/>
</svg>
