<svg width="27" height="33" viewBox="0 0 27 33" fill="none" xmlns="http://www.w3.org/2000/svg">
<g clip-path="url(#clip0_71_32927)">
<path fill-rule="evenodd" clip-rule="evenodd" d="M16.2662 11.7553C17.2495 11.2519 18.5006 10.5109 19.7532 9.49575C20.0173 10.0588 20.0462 10.5502 19.9102 10.947C19.8137 11.2266 19.632 11.4698 19.3931 11.6633C19.1343 11.8724 18.8112 12.0247 18.454 12.1069C17.7762 12.2637 16.9848 12.1722 16.2662 11.7553ZM16.4367 16.9127L17.7383 17.6846C15.0807 19.2138 14.3582 22.0534 13.5 24.8191C12.6419 22.0534 11.9193 19.2138 9.26187 17.6846L10.5634 16.9127C10.6894 16.8639 10.797 16.7754 10.8709 16.6599C10.9448 16.5444 10.9812 16.4078 10.9749 16.2698C10.8556 13.6796 11.5368 12.5342 12.4557 11.815C12.7853 11.5574 13.1451 11.428 13.5 11.428C13.855 11.428 14.2148 11.5574 14.5444 11.815C15.4633 12.5342 16.1445 13.6796 16.0253 16.2698C16.0189 16.4078 16.0554 16.5444 16.1293 16.6599C16.2032 16.7754 16.3108 16.8639 16.4367 16.9127ZM13.5 0C15.0045 0.04147 16.5128 0.34133 17.8217 0.92466C18.7282 1.32913 19.5739 1.8634 20.3398 2.50228C20.6857 2.7907 20.9704 3.06933 21.2842 3.39009C22.1303 3.42012 23.3668 2.45509 23.9409 1.5521C22.9529 4.8774 18.4446 8.80429 15.3234 10.3069C15.3221 10.3063 15.3212 10.3056 15.3203 10.3049C14.7601 9.86579 14.1301 9.64623 13.5 9.64623C12.8699 9.64623 12.24 9.86579 11.6799 10.3049C11.6789 10.3055 11.6781 10.3064 11.6768 10.3069C8.55548 8.80429 4.04723 4.8774 3.05927 1.5521C3.63323 2.45509 4.86977 3.42012 5.71587 3.39009C6.02969 3.06944 6.31448 2.7907 6.66023 2.50228C7.42609 1.8634 8.27187 1.32913 9.1783 0.92466C10.4874 0.34133 11.9956 0.04147 13.5 0ZM10.7338 11.7553C9.75066 11.2519 8.49944 10.5109 7.24694 9.49575C6.98284 10.0588 6.95391 10.5502 7.08987 10.947C7.18641 11.2266 7.36812 11.4698 7.60694 11.6633C7.8658 11.8724 8.18894 12.0247 8.54616 12.1069C9.22394 12.2637 10.0152 12.1722 10.7338 11.7553Z" fill="#D71118"/>
<path fill-rule="evenodd" clip-rule="evenodd" d="M21.125 8.25166C21.8146 7.53721 22.4222 6.74642 22.9108 6.04077L23.1589 6.52026C23.9578 8.16113 24.3729 9.7954 24.3729 11.6346L24.3711 14.5531L24.3861 16.0661C24.444 19.7803 25.2268 23.5383 27 26.9773L23.29 23.9059L20.6649 28.2794L17.907 25.614L13.5 32.9563L9.093 25.6141L6.33525 28.2795L3.71014 23.906L0 26.9774C1.77321 23.5384 2.556 19.7804 2.61396 16.0662L2.62896 14.5532L2.62725 11.6347C2.62725 9.7954 3.04221 8.16113 3.84129 6.52037L4.08932 6.04088C4.57789 6.74653 5.18539 7.53721 5.87507 8.25177L5.65971 8.71102C5.24132 9.60301 5.10279 10.6004 5.42871 11.5489C5.63882 12.1599 6.02229 12.6838 6.51664 13.0837C6.99664 13.4722 7.56471 13.734 8.15946 13.8715C8.54689 13.961 8.94161 13.9978 9.33375 13.9853C9.24225 14.5178 9.20229 15.0701 9.19971 15.6329L5.7 17.7081L8.40064 19.2623C8.6165 19.3866 8.82198 19.5289 9.015 19.6879C11.2415 21.7403 12.5802 27.812 13.5001 30.7777C14.4201 27.812 15.7587 21.7403 17.9853 19.6879C18.1783 19.5289 18.3838 19.3866 18.5997 19.2623L21.3003 17.7081L17.8005 15.6329C17.7979 15.0701 17.758 14.5178 17.6665 13.9853C18.0586 13.9978 18.4533 13.961 18.8407 13.8715C19.4355 13.734 20.0037 13.4722 20.4836 13.0837C20.9778 12.6838 21.3614 12.1599 21.5714 11.5489C21.8974 10.6004 21.7588 9.60312 21.3405 8.71102L21.1251 8.25177L21.125 8.25166Z" fill="#D71118"/>
</g>
<defs>
<clipPath id="clip0_71_32927">
<rect width="27" height="33" fill="white"/>
</clipPath>
</defs>
</svg>
