<svg width="31" height="26" viewBox="0 0 31 26" fill="none" xmlns="http://www.w3.org/2000/svg">
<path d="M30.9721 1.59213L26.1668 24.6484C26.1087 24.9273 25.9818 25.187 25.7977 25.4037C25.6136 25.6204 25.3783 25.7871 25.1134 25.8886C24.8485 25.99 24.5625 26.0229 24.2816 25.9843C24.0007 25.9456 23.734 25.8367 23.506 25.6674L16.5164 20.4774L12.2818 24.4925C12.2264 24.5451 12.1611 24.586 12.0898 24.6129C12.0184 24.6398 11.9425 24.6522 11.8663 24.6493C11.7902 24.6464 11.7154 24.6283 11.6463 24.596C11.5772 24.5637 11.5151 24.5179 11.4638 24.4613L11.3728 24.3608L12.1086 17.2043L25.3704 5.02619C25.436 4.96606 25.4768 4.88342 25.4847 4.79456C25.4926 4.7057 25.4672 4.61707 25.4133 4.54617C25.3594 4.47527 25.281 4.42723 25.1936 4.41154C25.1063 4.39586 25.0162 4.41365 24.9412 4.46142L7.98099 15.2501L0.676572 12.7845C0.482351 12.7189 0.313076 12.5946 0.191972 12.4285C0.0708678 12.2624 0.00386722 12.0627 0.000162377 11.8568C-0.00354246 11.6509 0.0562304 11.4489 0.17128 11.2785C0.286329 11.1081 0.451018 10.9777 0.642753 10.9051L29.2221 0.0846752C29.4425 0.0012943 29.6812 -0.0210324 29.9132 0.0200291C30.1452 0.0610906 30.362 0.164032 30.5408 0.318092C30.7197 0.472152 30.854 0.671673 30.9299 0.895795C31.0058 1.11992 31.0204 1.36041 30.9721 1.59213Z" fill="#D71118"/>
</svg>
