<svg width="12" height="16" viewBox="0 0 12 16" fill="none" xmlns="http://www.w3.org/2000/svg">
<path d="M10.9144 7.61404C10.9507 7.75634 10.973 7.90658 10.9813 8.06476C10.9896 8.22294 10.9824 8.36031 10.9596 8.47686C10.899 8.97031 10.6801 9.47205 10.3031 9.98208C9.94048 10.4914 9.49156 11.0052 8.95635 11.5235C8.42114 12.0418 7.87231 12.5753 7.30985 13.1238C6.84353 13.5809 6.36208 14.0243 5.86549 14.4541C5.36815 14.8695 4.86666 15.2058 4.36103 15.463C3.86978 15.7194 3.37705 15.8102 2.88285 15.7351C2.38864 15.6601 1.97507 15.4727 1.64212 15.1729C1.30918 14.8731 1.08107 14.5101 0.957796 14.084C0.848905 13.6571 0.854303 13.2098 0.973989 12.7421C1.09141 12.2313 1.35716 11.7992 1.77124 11.4458C2.18531 11.0925 2.67393 10.7857 3.23708 10.5254C3.81386 10.2501 4.38495 10.0038 4.95037 9.78676L8.85149 8.28453L8.83793 8.02568L4.79663 6.85318C4.21086 6.682 3.61716 6.49682 3.01551 6.29764C2.42749 6.08332 1.9091 5.82209 1.46036 5.51395C1.01162 5.20582 0.702538 4.81105 0.533111 4.32966C0.281233 3.65071 0.276456 3.00928 0.518782 2.40537C0.775488 1.80071 1.26677 1.40726 1.99263 1.22502C2.47628 1.09873 2.99017 1.13669 3.5343 1.33889C4.07843 1.54109 4.62708 1.82957 5.18025 2.20433C5.7478 2.57834 6.28735 2.96824 6.79888 3.37402C7.41485 3.84643 8.01644 4.3196 8.60365 4.79352C9.1901 5.25305 9.69027 5.71711 10.1042 6.18569C10.5324 6.65352 10.8025 7.12964 10.9144 7.61404Z" fill="white"/>
</svg>
