<svg width="12" height="17" viewBox="0 0 12 17" fill="none" xmlns="http://www.w3.org/2000/svg">
<path d="M0.459604 8.30218C0.534643 7.80798 0.753483 7.30624 1.11613 6.79696C1.47877 6.28768 1.9277 5.77388 2.4629 5.25556C2.99736 4.72286 3.54619 4.18941 4.1094 3.6552C4.5901 3.19741 5.08594 2.75325 5.5969 2.32272C6.10787 1.89219 6.62336 1.54794 7.14337 1.28997C7.66339 1.032 8.17049 0.940537 8.6647 1.01557C9.40563 1.12094 9.92815 1.46126 10.2323 2.03653C10.5508 2.61105 10.6203 3.24909 10.4407 3.95065C10.3226 4.44711 10.0564 4.87202 9.64236 5.22538C9.22829 5.57873 8.73286 5.89309 8.15608 6.16846C7.59293 6.42869 7.02902 6.67454 6.46436 6.906L2.56776 8.49451L2.58132 8.75336L6.61811 9.83958C7.21749 9.99562 7.8112 10.1808 8.39922 10.3951C9.00087 10.5943 9.51888 10.8483 9.95324 11.1572C10.402 11.4654 10.7114 11.8673 10.8816 12.3631C11.0495 12.8157 11.0945 13.2604 11.0164 13.6971C10.9527 14.133 10.771 14.5174 10.4712 14.8504C10.1858 15.1826 9.79411 15.4122 9.29607 15.5392C8.81242 15.6655 8.30572 15.6272 7.77597 15.4242C7.2606 15.2205 6.7339 14.9381 6.19586 14.577C5.67145 14.2007 5.14629 13.81 4.62037 13.405C4.00365 12.9182 3.40206 12.4451 2.8156 11.9855C2.22915 11.526 1.72898 11.0619 1.31509 10.5934C0.901196 10.1248 0.631108 9.64865 0.504823 9.165C0.484413 9.05071 0.462873 8.91485 0.440203 8.75742C0.431913 8.59924 0.43838 8.44749 0.459604 8.30218Z" fill="white"/>
</svg>
