<svg width="898" height="369" viewBox="0 0 898 369" fill="none" xmlns="http://www.w3.org/2000/svg">
<path d="M196.683 343.874C-12.5906 390.031 -50.978 260.899 63.0355 270.2C52.9316 242.529 77.809 176.968 149.57 218.685C149.57 218.685 170.122 152.589 227.454 179.188C192.435 155.765 143.982 65.1745 244.753 13.8512C337.679 -33.4917 387.624 51.6261 378.974 102.605C437.034 49.3297 493.37 124.305 474.004 175.322C509.292 74.8574 657.712 82.3971 672.371 183.934C672.371 183.934 774.29 136.706 779.227 268.592C800.277 237.324 897.183 246.318 897.183 306.214C897.183 357.882 733.912 335.301 733.912 335.301C549.86 405.416 196.683 343.874 196.683 343.874Z" fill="#E8FBFA"/>
<path d="M743.251 317.16C753.047 307.912 761.429 297.273 768.128 285.586C667.663 361.173 428.039 321.944 428.039 321.944C449.74 277.395 427.657 252.097 427.657 252.097C439.138 354.131 210.614 328.642 210.614 328.642C225.311 321.944 238.056 304.722 238.056 304.722C190.215 331.512 30.4277 355.433 0.154233 297.871C-3.13719 329.828 60.6628 373.88 196.683 343.798C196.683 343.798 549.861 405.34 733.989 335.301C733.989 335.301 897.259 357.882 897.259 306.214C881.261 342.497 743.251 317.16 743.251 317.16Z" fill="#CDF4F0"/>
<path d="M261.019 275.06C312.189 315.246 416.979 258.795 409.324 230.09C401.67 201.386 353.829 203.3 353.829 203.3C333.736 151.632 255.355 191.818 279.198 237.745C279.198 237.745 234.228 254.011 261.019 275.06Z" fill="#FEFFFF"/>
<path d="M311.73 102.184C311.73 102.184 308.553 117.493 289.417 128.975C289.417 128.975 369.138 120.861 377.443 69.4228C365.962 23.0366 319.308 -24.0767 244.906 13.8512C221.713 25.6391 206.634 39.5703 197.066 54.2286C194.233 104.901 260.33 122.086 311.73 102.184Z" fill="#FEFFFF"/>
<path d="M654.918 196.602C619.822 208.084 586.027 184.432 586.027 184.432C586.027 184.432 642.823 172.95 650.019 135.022C603.633 83.7753 502.402 94.7594 473.966 175.399C473.966 175.399 453.529 222.092 508.717 234.071C611.632 256.307 654.918 196.602 654.918 196.602Z" fill="#FEFFFF"/>
<path d="M477.908 152.704C477.487 112.518 442.047 71.107 400.675 88.3295C395.431 137.931 454.945 196.028 477.908 152.704Z" fill="#FEFFFF"/>
<path d="M802.611 253.934C787.302 283.442 872.267 341.195 893.853 288.379C880.917 255.733 833.421 245.323 802.611 253.934Z" fill="#FEFFFF"/>
<path d="M778.002 251.523C770.654 188.182 737.051 175.285 709.686 175.82C707.466 215.164 765.832 292.934 778.002 251.523Z" fill="#FEFFFF"/>
<path d="M686.111 242.529C699.11 242.529 709.648 235.675 709.648 227.22C709.648 218.765 699.11 211.911 686.111 211.911C673.111 211.911 662.573 218.765 662.573 227.22C662.573 235.675 673.111 242.529 686.111 242.529Z" fill="#FEFFFF"/>
<path d="M423.868 207.166C436.868 207.166 447.406 200.311 447.406 191.857C447.406 183.402 436.868 176.548 423.868 176.548C410.869 176.548 400.331 183.402 400.331 191.857C400.331 200.311 410.869 207.166 423.868 207.166Z" fill="#FEFFFF"/>
<path d="M575.809 301.851C660.009 312.032 719.981 302.349 728.248 289.03C736.515 275.711 694.951 263.579 686.148 278.237C686.148 278.237 671.528 252.097 643.475 248.27C615.421 244.443 605.815 277.166 605.815 277.166C574.546 254.47 575.809 301.851 575.809 301.851Z" fill="#FEFFFF"/>
<path d="M526.055 267.406C526.055 275.979 509.369 278.237 488.74 278.237C468.111 278.237 451.424 275.979 451.424 267.406C451.424 258.833 468.149 247.926 488.74 247.926C509.33 247.926 526.055 258.871 526.055 267.406Z" fill="#FEFFFF"/>
<path d="M303.119 158.368C303.119 166.903 286.432 169.161 265.803 169.161C245.175 169.161 228.488 166.903 228.488 158.368C228.488 149.833 245.213 138.887 265.803 138.887C286.394 138.887 303.119 149.795 303.119 158.368Z" fill="#FEFFFF"/>
<path d="M184.015 273.798C184.015 280.419 171.079 282.179 155.119 282.179C139.16 282.179 126.262 280.419 126.262 273.798C126.262 267.176 139.198 258.718 155.119 258.718C171.041 258.718 184.015 267.176 184.015 273.798Z" fill="#FEFFFF"/>
<path d="M204.222 172.95C164.457 170.845 149.57 218.685 149.57 218.685C166.792 255.121 203.151 250.643 228.487 238.204C249.078 228.1 235.568 195.531 204.222 172.95Z" fill="#FEFFFF"/>
<path d="M123.391 207.433C71.7997 193.808 54.2709 246.203 63.0353 270.2C94.9927 312.338 137.858 253.015 123.391 207.433Z" fill="#FEFFFF"/>
<path d="M557.324 34.2503C557.324 40.1443 545.843 41.7134 531.644 41.7134C517.444 41.7134 505.963 40.1443 505.963 34.2503C505.963 28.3564 517.444 20.855 531.644 20.855C545.843 20.855 557.324 28.3564 557.324 34.2503Z" fill="#FEFFFF"/>
<path d="M734.907 79.8329C733.835 79.8329 732.802 79.8329 731.769 79.8329C730.957 76.497 729.223 73.4568 726.765 71.0598C724.307 68.6629 721.224 67.0061 717.868 66.2788C714.513 65.5514 711.021 65.783 707.791 66.9469C704.561 68.1108 701.724 70.1601 699.603 72.8606C697.483 75.561 696.166 78.8035 695.802 82.2174C695.438 85.6313 696.042 89.0788 697.545 92.1657C699.047 95.2525 701.388 97.8542 704.3 99.6732C707.212 101.492 710.577 102.455 714.01 102.452C715.868 102.468 717.716 102.183 719.483 101.61C724.562 102.226 729.676 102.507 734.792 102.452C750.101 102.452 762.808 100.768 762.808 94.3382C762.808 87.9084 750.407 79.8329 734.907 79.8329Z" fill="#FEFFFF"/>
<path d="M133.533 94.6446C79.7218 110.949 40.6076 100.041 37.1248 93.152C33.642 86.263 75.3972 81.0962 75.3972 81.0962C90.821 52.966 134.796 71.0305 133.533 94.6446Z" fill="#FEFFFF"/>
</svg>
