<svg width="778" height="335" viewBox="0 0 778 335" fill="none" xmlns="http://www.w3.org/2000/svg">
<path d="M710.098 263.544C713.059 155.296 591.664 182.417 591.664 182.417C591.664 182.417 598.711 103.126 510.982 119.559C510.982 119.559 531.352 10.2152 433.408 0.622112C328.239 -9.68159 331.2 111.417 331.2 111.417C274.737 64.5169 176.526 108.929 193.195 198.672C171.226 170.485 122.135 184.549 123.497 234.202C112.779 221.204 78.6999 234.943 86.4869 261.205C56.168 235.061 2.65771 256 0.657715 293.5C0.657715 293.5 -24.8109 337.95 241.161 312.309C241.161 312.309 367.233 360.867 501.181 314.471C501.181 314.471 774.141 365.308 777.161 300.17C778.552 267.956 710.098 263.544 710.098 263.544Z" fill="#E8FBFA"/>
<path d="M227.749 292.235C203.055 269.792 203.055 247.083 203.055 247.083C245.987 309.763 451.765 352.192 517.644 264.611C516.479 275.419 512.292 285.681 505.564 294.219C505.564 294.219 807.569 352.666 761.854 277.372C771.003 282.731 777.516 290.163 777.043 300.348C774.082 365.486 501.063 314.649 501.063 314.649C367.115 361.045 241.043 312.487 241.043 312.487C-24.929 338.01 1.15771 296 1.15771 296C148.755 341.626 227.749 292.235 227.749 292.235Z" fill="#CDF4F0"/>
<path d="M124.859 218.096C130.929 191.448 154.468 180.138 174.039 185.734C185.793 205.601 126.576 248.74 124.859 218.096Z" fill="#FEFFFF"/>
<path d="M86.3693 261.057C80.2403 240.331 100.019 227.511 113.964 229.258C121.662 246.579 94.2155 283.915 86.3693 261.057Z" fill="#FEFFFF"/>
<path d="M267.483 229.139C267.483 276.246 434.977 295.018 477.702 243.055C514.387 198.643 450.759 180.167 435.777 212.292C407.353 178.302 336.234 177.443 325.012 212.292C324.953 212.292 267.483 196.837 267.483 229.139Z" fill="#FEFFFF"/>
<path d="M267.483 184.342C267.483 184.342 192.425 213.151 196.423 148.131C211.848 105.88 258.393 84.5918 299.252 95.162C327.617 122.609 303.664 178.243 230.117 163.705C230.205 163.705 234.677 178.332 267.483 184.342Z" fill="#FEFFFF"/>
<path d="M532.211 117.338C597.35 116.717 591.576 182.477 591.576 182.477C588.23 237.874 464.29 140.67 532.211 117.338Z" fill="#FEFFFF"/>
<path d="M496.207 139.041C484.009 122.253 470.922 125.747 448.834 131.017C442.646 118.434 413.6 112.009 399.536 125.747C391.808 133.297 353.762 133.238 374.014 149.967C394.266 166.695 439.566 168.886 439.566 168.886C470.478 182.95 512.255 161.129 496.207 139.041Z" fill="#FEFFFF"/>
<path d="M390.091 88.9441C372.652 90.2469 347.396 62.6815 341.741 78.4035C336.085 94.1255 328.15 115.088 351.6 109.167C375.05 103.245 379.728 114.674 390.091 110.203C400.454 105.732 413.274 87.1972 390.091 88.9441Z" fill="#FEFFFF"/>
<path d="M353.377 33.0733C368.181 12.3475 392.608 -3.34493 433.319 0.652197C503.373 7.52133 512.907 65.4353 512.64 97.8268C506.57 108.16 492.595 111.328 468.583 104.518C404.422 86.2499 419.285 73.5479 378.278 61.0828C369.928 58.5365 359.062 45.5088 353.377 33.0733Z" fill="#FEFFFF"/>
<path d="M578.607 261.413C569.725 246.105 623.256 215.757 623.256 215.757C603.271 207.377 602.086 190.56 606.113 180.227C638.268 176.999 712.318 178.687 710.098 263.515C697.514 280.658 587.49 276.691 578.607 261.413Z" fill="#FEFFFF"/>
<path d="M548.259 236.245C521.612 253.093 493.839 239.858 500.886 230.65C507.933 221.441 529.014 197.222 542.693 202.847C556.372 208.473 558.237 229.969 548.259 236.245Z" fill="#FEFFFF"/>
<path d="M349.201 163.172C344.879 148.634 326.462 158.198 326.462 158.198C315.833 145.703 283.116 173.95 306.388 179.694C333.835 186.474 351.866 172.025 349.201 163.172Z" fill="#FEFFFF"/>
<path d="M110.382 133.742C103.809 146.858 72.2164 147.095 67.2126 136.436C62.2088 125.777 81.0693 123.112 81.0693 123.112C90.4848 102.86 117.31 119.944 110.382 133.742Z" fill="#FEFFFF"/>
<path d="M715.783 112.334C696.034 123.526 643.953 116.687 643.953 109.788C643.953 97.9448 663.08 92.6153 669.978 105.08C691.563 96.6124 716.493 112.275 715.783 112.334Z" fill="#FEFFFF"/>
<path d="M633.265 77.5744C627.394 77.5744 622.635 73.929 622.635 69.4321C622.635 64.9352 627.394 61.2898 633.265 61.2898C639.135 61.2898 643.894 64.9352 643.894 69.4321C643.894 73.929 639.135 77.5744 633.265 77.5744Z" fill="#FEFFFF"/>
</svg>
