<svg width="563" height="38" viewBox="0 0 563 38" fill="none" xmlns="http://www.w3.org/2000/svg">
<path d="M0.197723 8.39819L220.876 8.39819" stroke="#D71118" stroke-width="2.29069"/>
<path d="M0.197739 19.088H220.876" stroke="#D71118" stroke-width="2.29069"/>
<path d="M0.197723 29.778H220.876" stroke="#D71118" stroke-width="2.29069"/>
<path d="M243.783 6.10754L246.697 15.0769H256.128L248.499 20.6203L251.413 29.5896L243.783 24.0462L236.153 29.5896L239.068 20.6203L231.438 15.0769H240.869L243.783 6.10754Z" fill="#003399"/>
<path d="M281.198 0.762573L285.312 13.4252H298.626L287.855 21.2511L291.969 33.9137L281.198 26.0878L270.426 33.9137L274.541 21.2511L263.769 13.4252H277.083L281.198 0.762573Z" fill="#003399"/>
<path d="M318.612 6.10754L321.527 15.0769H330.958L323.328 20.6203L326.242 29.5896L318.612 24.0462L310.982 29.5896L313.897 20.6203L306.267 15.0769H315.698L318.612 6.10754Z" fill="#003399"/>
<path d="M341.519 8.39819H562.198" stroke="#D71118" stroke-width="2.29069"/>
<path d="M341.519 19.088H562.198" stroke="#D71118" stroke-width="2.29069"/>
<path d="M341.519 29.778H562.198" stroke="#D71118" stroke-width="2.29069"/>
</svg>
