<svg width="299" height="262" viewBox="0 0 299 262" fill="none" xmlns="http://www.w3.org/2000/svg">
<path d="M195.614 108.729C195.614 108.729 170.805 121.805 165.905 158.975L172.848 160.097C172.848 160.097 176.474 129.073 195.614 108.729Z" fill="#834523"/>
<g style="mix-blend-mode:multiply">
<path d="M195.615 108.729C193.628 109.871 191.747 111.187 189.993 112.663H190.208L189.854 113.892L189.132 113.999C189.132 113.999 189.916 114.476 189.578 114.783C189.24 115.09 186.029 118.624 186.029 118.624H184.893L185.446 119.639C183.572 120.622 179.301 128.996 179.301 128.996L176.905 128.827L179.332 130.149L176.874 136.034L174.216 136.172L176.275 137.571L175.123 140.936C174.089 140.832 173.046 140.931 172.05 141.228L174.723 142.303C173.617 144.762 171.282 156.44 171.282 156.44L166.32 155.564C166.136 156.67 165.967 157.807 165.813 158.975L172.757 160.097C172.757 160.097 176.474 129.073 195.615 108.729Z" fill="#834523"/>
</g>
<g style="mix-blend-mode:screen">
<path d="M188.028 114.721C176.794 125.334 169.425 139.394 167.09 154.673L167.397 154.534C167.397 154.534 171.284 131.117 188.028 114.721Z" fill="#71482D"/>
</g>
<path d="M194.462 109.681C194.093 109.528 201.175 106.393 209.179 109.312L208.334 110.987L210.454 110.48C212.67 113.561 213.805 117.289 213.679 121.083L211.421 122.143L213.633 123.679C213.633 123.679 212.097 129.826 209.025 132.899C208.463 130.717 207.765 128.571 206.936 126.476L208.241 124.939L206.337 125.585L203.495 120.268L204.785 118.102L203.095 119.147C202.384 117.06 201.25 115.143 199.764 113.514C198.279 111.886 196.474 110.581 194.462 109.681Z" fill="#237812"/>
<path d="M194.755 109.451C194.525 109.558 194.417 109.65 194.463 109.681C196.477 110.583 198.283 111.89 199.768 113.521C201.254 115.152 202.387 117.073 203.096 119.162L204.786 118.117L203.496 120.284L206.338 125.6L208.243 124.955L206.937 126.491C207.766 128.587 208.464 130.732 209.026 132.914C209.026 132.914 210.562 122.896 206.568 116.012C203.158 110.158 196.629 109.512 194.755 109.451Z" fill="#65B204"/>
<path d="M194.753 109.205C194.753 109.205 188.87 96.7584 174.783 96.405L172.171 97.1887L174.875 99.3399L177.778 98.6023C177.605 99.0464 177.372 99.4651 177.087 99.847C176.841 100.016 178.623 101.291 178.623 101.291L181.696 100.661L179.837 101.921L182.018 103.458L184.952 102.014L182.802 103.98C186.004 107.139 190.261 109 194.753 109.205Z" fill="#237812"/>
<path d="M193.989 110.019C193.194 107.424 192.98 104.686 193.359 101.998H194.665L193.313 101.061L195.433 96.7582H196.877C196.68 96.4685 196.459 96.196 196.216 95.9439C197.308 94.7529 198.559 93.7187 199.934 92.8707L200.901 93.516L200.563 92.5326C203.032 91.0607 205.759 90.0749 208.598 89.6285C210.076 89.3056 211.617 89.4123 213.037 89.9358L208.936 91.4724L211.071 92.3943C211.071 92.3943 208.121 97.3421 207.614 97.8185L206.002 96.8504L206.8 98.4792L203.928 102.075L202.914 100.846L203.098 102.797L200.364 105.64C200.364 105.64 195.97 109.696 193.989 110.019Z" fill="#65B204"/>
<path d="M193.988 110.019C195.969 109.697 200.363 105.502 200.363 105.502L203.097 102.659L202.913 100.708L203.927 101.937L206.799 98.3412L206.001 96.7125L207.614 97.6805C208.121 97.2042 211.07 92.2564 211.07 92.2564L208.935 91.3344L213.036 89.7978C200.132 87.5851 193.988 110.019 193.988 110.019Z" fill="#237812"/>
<path d="M191.5 108.053C191.5 108.053 175.232 101.031 169.902 118.041L171.607 117.472L173.143 115.152L172.851 116.903L174.188 116.366L175.125 114.045L175.401 115.889L180.01 113.584L180.747 111.341L181.116 113.2L186.416 112.155L187.445 109.943L187.737 111.71L194.496 109.574L191.5 108.053Z" fill="#65B204"/>
<path d="M194.391 109.574C196.89 111.446 198.896 113.899 200.234 116.721C201.572 119.543 202.203 122.649 202.072 125.769L200.735 126.307L202.01 127.275L200.151 134.021L198.615 133.867L199.245 134.728C197.571 137.126 195.217 138.967 192.486 140.013C192.32 136.892 191.971 133.783 191.441 130.702L193.561 130.61L191.441 129.595L191.349 128.443L194.606 127.736L191.718 126.799L191.564 120.115L194.836 119.3L191.764 119.101L193.915 117.564L191.795 117.134L192.071 113.077L194.391 109.574Z" fill="#B5EA00"/>
<path d="M194.386 109.574L192.189 113.108L191.913 117.164L194.033 117.595L191.882 119.131L194.954 119.331L191.682 120.145L191.836 126.83L194.724 127.767L191.467 128.474L191.559 129.626L193.556 130.61H191.467C191.997 133.69 192.346 136.8 192.512 139.921C204.463 121.866 194.386 109.574 194.386 109.574Z" fill="#65B204"/>
<path d="M202.071 127.275L200.796 126.307L202.132 125.769C202.264 122.649 201.633 119.543 200.295 116.721C198.956 113.899 196.951 111.446 194.451 109.574C194.451 109.574 204.529 121.866 192.639 140.013C195.369 138.967 197.724 137.126 199.398 134.728L198.768 133.867L200.304 134.021L202.071 127.275Z" fill="#237812"/>
<g style="mix-blend-mode:screen">
<path d="M170.175 117.763C170.175 117.763 173.248 109.297 179.239 107.668C183.066 106.725 187.086 106.918 190.806 108.221C190.806 108.221 185.46 106.869 182.096 107.898L186.259 108.098L184.723 109.788L181.19 111.325L181.282 108.482L179.577 111.402L175.767 113.707L175.89 111.356L173.401 114.721L173.478 112.954C172.216 114.44 171.11 116.052 170.175 117.763Z" fill="#B5EA00"/>
</g>
<g style="mix-blend-mode:screen">
<path d="M207.14 90.2896C207.14 90.2896 198.461 93.3627 194.129 109.143C194.443 104.804 195.959 100.638 198.507 97.112C202.778 91.4727 207.14 90.2896 207.14 90.2896Z" fill="#65B204"/>
</g>
<g style="mix-blend-mode:screen">
<path d="M196.198 109.528C199.26 109.76 202.154 111.015 204.417 113.091C206.679 115.167 208.178 117.944 208.672 120.975C209.421 124.777 209.536 128.676 209.01 132.515C209.01 132.515 212.42 114.245 196.198 109.528Z" fill="#B5EA00"/>
</g>
<path d="M194.955 111.202L192.666 113.046V116.442L196.276 117.564L193.373 118.593L196.337 118.931C196.559 121.946 196.357 124.977 195.738 127.936L193.557 129.073L196.629 129.334C195.927 132.935 194.809 136.441 193.296 139.783C193.296 139.783 198.165 131.7 198.165 123.218C198.165 114.737 194.955 111.202 194.955 111.202Z" fill="#B5EA00"/>
<path d="M176.072 97.035C179.485 97.1653 182.804 98.1816 185.705 99.9839C188.606 101.786 190.988 104.313 192.617 107.315L189.038 106.408L187.163 104.964L188.546 104.057L186.856 104.61L184.659 102.951L186.196 101.122L183.492 101.353L184.168 99.9238C181.735 98.3362 178.961 97.3464 176.072 97.035Z" fill="#65B204"/>
<path d="M271.9 152.875C271.9 152.875 245.171 161.387 233.788 197.098L240.44 199.433C240.44 199.433 249.426 169.47 271.9 152.875Z" fill="#834523"/>
<g style="mix-blend-mode:multiply">
<path d="M271.903 152.875C269.743 153.653 267.656 154.62 265.666 155.763H265.896L265.343 156.916H264.606C264.606 156.916 265.282 157.53 264.898 157.776C264.514 158.022 260.735 160.85 260.735 160.85L259.613 160.619L259.982 161.71C257.97 162.34 252.301 169.839 252.301 169.839L249.982 169.255L252.132 170.976L248.676 176.338L246.034 176L247.816 177.752L246.08 180.948C245.081 180.667 244.039 180.578 243.007 180.687L245.45 182.223C243.914 184.451 239.582 195.546 239.582 195.546L234.85 193.809C234.466 194.87 234.082 195.96 233.729 197.067L240.381 199.402C240.381 199.402 249.429 169.47 271.903 152.875Z" fill="#834523"/>
</g>
<g style="mix-blend-mode:screen">
<path d="M263.312 157.438C250.394 165.887 240.664 178.405 235.661 193.01L235.984 192.918C235.984 192.918 243.941 170.561 263.312 157.438Z" fill="#71482D"/>
</g>
<path d="M270.55 153.659C270.212 153.443 277.724 151.615 285.082 155.887L283.961 157.423L286.188 157.3C287.817 160.731 288.276 164.601 287.494 168.318L285.067 168.963L286.972 170.93C286.972 170.93 284.314 176.753 280.827 179.197C280.654 176.946 280.341 174.709 279.89 172.497L281.426 171.16L279.429 171.452L277.57 165.721L279.229 163.815L277.386 164.553C277.06 162.363 276.284 160.265 275.107 158.39C273.931 156.515 272.379 154.904 270.55 153.659Z" fill="#237812"/>
<path d="M270.873 153.443C270.612 153.443 270.489 153.581 270.55 153.612C272.373 154.856 273.92 156.463 275.093 158.332C276.267 160.202 277.042 162.293 277.371 164.476L279.214 163.738L277.555 165.644L279.414 171.375L281.411 171.083L279.875 172.42C280.326 174.631 280.639 176.869 280.812 179.119C280.812 179.119 284.084 169.516 281.365 161.987C279.015 155.61 272.747 153.827 270.873 153.443Z" fill="#65B204"/>
<path d="M270.916 153.197C270.916 153.197 267.291 139.906 253.588 137.094L250.869 137.401L253.158 139.998L256.154 139.783C255.901 140.185 255.596 140.552 255.247 140.874C254.971 141.012 256.43 142.564 256.43 142.564H259.61L257.567 143.486L259.426 145.422L262.575 144.516L260.102 146.052C262.706 149.682 266.556 152.226 270.916 153.197Z" fill="#237812"/>
<path d="M270.001 153.874C269.684 151.178 269.962 148.445 270.815 145.868L272.105 146.022L270.938 144.869L273.795 141.012L275.208 141.212C275.062 140.896 274.898 140.588 274.717 140.29C275.999 139.304 277.41 138.497 278.91 137.893L279.74 138.708L279.586 137.678C282.273 136.66 285.132 136.169 288.004 136.234C289.521 136.18 291.021 136.553 292.336 137.309L288.02 138.108L289.955 139.399C289.955 139.399 286.192 143.732 285.608 144.132L284.195 142.902L284.702 144.639L281.23 147.712L280.462 146.314L280.293 148.28L277.082 150.585C277.082 150.585 272.013 153.904 270.001 153.874Z" fill="#65B204"/>
<path d="M269.997 153.874C272.009 153.874 277.079 150.539 277.079 150.539L280.274 148.234L280.443 146.268L281.211 147.666L284.683 144.593L284.191 142.902L285.62 144.147C286.204 143.748 289.967 139.414 289.967 139.414L288.032 138.124L292.348 137.325C280.028 132.838 269.997 153.874 269.997 153.874Z" fill="#237812"/>
<path d="M267.91 151.492C267.91 151.492 253.147 141.704 244.867 157.515L246.649 157.254L248.554 155.226L247.97 156.916L249.368 156.609L250.705 154.488V156.363L255.605 154.826L256.742 152.737V154.642L262.134 154.55L263.547 152.552V154.335L270.598 153.428L267.91 151.492Z" fill="#65B204"/>
<path d="M270.49 153.489C272.629 155.769 274.18 158.537 275.007 161.552C275.834 164.567 275.913 167.739 275.237 170.791L273.839 171.099L274.914 172.282L271.842 178.582L270.398 178.182L270.859 179.135C268.788 181.199 266.143 182.591 263.27 183.13C263.656 180.031 263.861 176.911 263.884 173.788L265.958 174.11L264.038 172.743L264.161 171.59L267.479 171.467L264.806 170.023L265.835 163.431L269.2 163.216L266.266 162.478L268.662 161.341L266.65 160.527L267.648 156.593L270.49 153.489Z" fill="#B5EA00"/>
<path d="M270.488 153.49L267.708 156.563L266.709 160.496L268.722 161.311L266.325 162.448L269.259 163.185L265.895 163.401L264.866 169.993L267.539 171.437L264.221 171.56L264.098 172.712L266.018 174.08L263.944 173.757C263.921 176.881 263.716 180 263.33 183.1C278.246 167.38 270.488 153.49 270.488 153.49Z" fill="#65B204"/>
<path d="M274.976 172.282L273.9 171.099L275.298 170.792C275.975 167.739 275.896 164.567 275.069 161.552C274.242 158.537 272.691 155.769 270.552 153.49C270.552 153.49 278.232 167.319 263.393 183.13C266.266 182.592 268.911 181.199 270.982 179.135L270.521 178.183L271.965 178.582L274.976 172.282Z" fill="#237812"/>
<g style="mix-blend-mode:screen">
<path d="M245.213 157.285C245.213 157.285 249.638 149.494 255.967 148.957C259.901 148.702 263.824 149.599 267.257 151.538C267.257 151.538 262.219 149.264 258.747 149.679L262.68 150.585L260.805 151.968L257.057 152.844L257.656 150.047L255.536 152.66L251.373 154.196L251.911 151.907L248.839 154.765L249.223 153.044C247.744 154.315 246.4 155.737 245.213 157.285Z" fill="#B5EA00"/>
</g>
<g style="mix-blend-mode:screen">
<path d="M286.432 136.756C286.432 136.756 277.338 138.293 270.302 153.029C271.379 148.81 273.607 144.974 276.739 141.95C281.854 137.14 286.432 136.756 286.432 136.756Z" fill="#65B204"/>
</g>
<g style="mix-blend-mode:screen">
<path d="M272.267 153.781C275.239 154.547 277.868 156.291 279.73 158.732C281.591 161.174 282.577 164.171 282.528 167.241C282.599 171.114 282.028 174.972 280.838 178.658C280.838 178.658 287.398 161.341 272.267 153.781Z" fill="#B5EA00"/>
</g>
<path d="M270.752 155.195L268.187 156.624L267.664 159.958L271.013 161.71L267.941 162.202L270.798 163.062C270.486 166.068 269.757 169.016 268.632 171.821L266.205 172.512L269.124 173.296C267.799 176.715 266.082 179.969 264.008 182.992C264.008 182.992 270.23 175.923 271.812 167.626C273.394 159.328 270.752 155.195 270.752 155.195Z" fill="#B5EA00"/>
<path d="M254.67 137.924C258.007 138.655 261.096 140.243 263.633 142.53C266.17 144.817 268.068 147.726 269.141 150.97L265.792 149.433L264.256 147.666L265.792 147.021L264.026 147.266L262.167 145.238L263.964 143.702L261.153 143.471L262.059 142.18C259.963 140.203 257.432 138.746 254.67 137.924Z" fill="#65B204"/>
<path d="M80.0151 125.216C80.0151 125.216 102.704 131.562 113.304 161.218L107.789 163.385C107.789 163.385 99.3094 138.492 80.0151 125.216Z" fill="#834523"/>
<g style="mix-blend-mode:multiply">
<path d="M80.0151 125.216C81.8555 125.821 83.635 126.598 85.3303 127.536H85.1459L85.6375 128.489H86.252C86.252 128.489 85.699 129.027 86.0369 129.211C86.3749 129.396 89.6315 131.747 89.6315 131.747L90.5532 131.516L90.2921 132.438C91.9972 132.914 96.9437 139.045 96.9437 139.045L98.8793 138.292L97.1127 139.829L100.185 144.224L102.397 143.855L100.953 145.391L102.489 148.034C103.313 147.777 104.178 147.672 105.039 147.727L103.027 149.049C104.998 152.619 106.777 156.291 108.357 160.05L112.275 158.514C112.628 159.39 112.966 160.296 113.304 161.218L107.789 163.385C107.789 163.385 99.3094 138.492 80.0151 125.216Z" fill="#834523"/>
</g>
<g style="mix-blend-mode:screen">
<path d="M87.2979 128.797C98.3891 135.507 106.925 145.727 111.554 157.838H111.277C111.277 157.838 103.95 139.291 87.2979 128.797Z" fill="#71482D"/>
</g>
<path d="M81.1248 125.785C81.4013 125.6 74.9801 124.248 68.9891 128.089L69.9722 129.319H68.0981C66.8473 132.227 66.5777 135.463 67.33 138.538L69.3731 139.015L67.837 140.705C67.837 140.705 70.2334 145.53 73.2904 147.466C73.3601 145.575 73.5552 143.691 73.8741 141.827L72.5223 140.751L74.1967 140.935L75.5946 136.064L74.0584 134.528L75.5946 135.096C75.8232 133.246 76.4327 131.464 77.3845 129.861C78.3363 128.258 79.6099 126.87 81.1248 125.785Z" fill="#237812"/>
<path d="M80.851 125.662C81.0661 125.662 81.1736 125.77 81.1275 125.785C79.6335 126.884 78.3822 128.28 77.4519 129.885C76.5215 131.49 75.932 133.269 75.7202 135.112L74.184 134.544L75.7202 136.08L74.3223 140.951L72.6479 140.767L73.9997 141.842C73.6382 143.714 73.4021 145.609 73.293 147.512C73.293 147.512 70.2207 139.553 72.3253 133.161C73.0049 131.297 74.1417 129.633 75.6314 128.323C77.121 127.013 78.9158 126.098 80.851 125.662Z" fill="#65B204"/>
<path d="M80.8037 125.447C80.8037 125.447 83.4459 114.184 94.875 111.418L97.1639 111.602L95.3205 113.861L92.8012 113.707C93.0274 114.043 93.2958 114.347 93.6 114.614C93.8304 114.706 92.6476 116.058 92.6476 116.058H89.99L91.7259 116.765L90.1897 118.44L87.5628 117.856L89.6828 119.055C87.6075 122.203 84.4473 124.478 80.8037 125.447Z" fill="#237812"/>
<path d="M81.5861 126C81.7819 123.727 81.4724 121.439 80.6798 119.3L79.6045 119.469L80.5415 118.455L78.0376 115.244L76.8547 115.459C76.967 115.19 77.0953 114.928 77.2388 114.675C76.135 113.88 74.9249 113.244 73.6441 112.785L72.9682 113.492L73.0757 112.616C70.7883 111.844 68.3733 111.52 65.9633 111.663C64.6907 111.651 63.442 112.009 62.3687 112.693L66.0094 113.231L64.4732 114.368C64.4732 114.368 67.776 117.902 68.2675 118.209L69.435 117.118L69.051 118.655L72.1233 121.098L72.7378 119.9L72.9375 121.544L75.6872 123.388C75.6872 123.388 79.881 126.077 81.5861 126Z" fill="#65B204"/>
<path d="M81.5885 126C79.914 126 75.5513 123.403 75.5513 123.403L72.8016 121.559L72.6019 119.853L71.9874 121.052L68.9151 118.609L69.2991 117.072L68.2085 118.317C67.7169 118.009 64.4141 114.475 64.4141 114.475L65.9503 113.338L62.3096 112.8C72.5712 108.621 81.5885 126 81.5885 126Z" fill="#237812"/>
<path d="M83.2781 123.925C83.2781 123.925 95.3985 115.243 102.787 128.32L101.251 128.151L99.5922 126.506L100.145 127.905L98.9624 127.69L97.7949 125.999L97.9024 127.536L93.7548 126.46L92.7409 124.724V126.261L88.1324 126.353L86.8881 124.709V126.245L80.9585 125.692L83.2781 123.925Z" fill="#65B204"/>
<path d="M81.1749 125.692C79.4438 127.667 78.2212 130.034 77.6135 132.589C77.0057 135.144 77.0312 137.809 77.6878 140.351L78.8707 140.567L78.0104 141.596L80.7141 146.79L81.9276 146.406L81.559 147.22C83.363 148.871 85.6216 149.942 88.0416 150.293C87.6324 147.703 87.3708 145.092 87.2581 142.472L85.5376 142.902L87.0738 141.704L86.9509 140.736H84.1704L86.3825 139.445L85.3226 133.944H82.496L84.9385 133.237L82.9569 132.223L84.493 131.485L83.5406 128.212L81.1749 125.692Z" fill="#B5EA00"/>
<path d="M81.1735 125.692L83.6007 128.212L84.4916 131.485L82.9555 132.223L84.9986 133.114L82.5561 133.821H85.3826L86.4426 139.322L84.2305 140.613H87.0417L87.1646 141.581L85.6284 142.779L87.3489 142.441C87.4616 145.061 87.7232 147.672 88.1324 150.262C75.0749 137.57 81.1735 125.692 81.1735 125.692Z" fill="#65B204"/>
<path d="M78.0104 141.596L78.8707 140.567L77.6878 140.351C77.0312 137.809 77.0057 135.144 77.6135 132.589C78.2212 130.034 79.4438 127.667 81.1749 125.692C81.1749 125.692 75.0302 137.57 88.0416 150.278C85.6216 149.927 83.363 148.856 81.559 147.205L81.9276 146.39L80.7141 146.774L78.0104 141.596Z" fill="#237812"/>
<g style="mix-blend-mode:screen">
<path d="M102.512 128.136C102.512 128.136 98.5486 121.713 93.2949 121.452C89.9847 121.357 86.7184 122.228 83.8936 123.956C86.1022 122.851 88.5225 122.232 90.9906 122.143L87.6111 123.05L89.1472 124.141L92.3271 124.771L91.7434 122.451L93.7097 124.586L97.2428 125.816L96.7359 123.895L99.3628 126.215L98.9941 124.786C100.273 125.785 101.451 126.907 102.512 128.136Z" fill="#B5EA00"/>
</g>
<g style="mix-blend-mode:screen">
<path d="M67.2998 112.171C67.2998 112.171 74.9806 113.154 81.325 125.355C80.2919 121.847 78.3088 118.693 75.5951 116.243C73.3239 114.051 70.4227 112.627 67.2998 112.171Z" fill="#65B204"/>
</g>
<g style="mix-blend-mode:screen">
<path d="M79.6798 126C77.2088 126.733 75.0555 128.276 73.5653 130.379C72.0751 132.483 71.3341 135.026 71.4613 137.601C71.5138 140.858 72.1109 144.084 73.2279 147.143C73.2279 147.143 67.1907 132.715 79.6798 126Z" fill="#B5EA00"/>
</g>
<path d="M81.0045 127.122L83.2012 128.243L83.7389 131.04L80.9738 132.576L83.5545 132.915L81.1735 133.683C81.5263 136.199 82.2241 138.655 83.2473 140.982L85.3058 141.489L82.9554 142.288C84.1762 145.116 85.7228 147.793 87.5639 150.263C84.276 146.633 81.8778 142.287 80.559 137.57C78.8846 130.61 81.0045 127.122 81.0045 127.122Z" fill="#B5EA00"/>
<path d="M93.997 112.17C91.2178 112.881 88.6715 114.304 86.6084 116.297C84.5452 118.291 83.0363 120.787 82.23 123.541L85.0104 122.174L86.3008 120.637L84.9951 120.13L86.5313 120.284L88.0674 118.532L86.5313 117.287L88.8048 117.011L87.9906 115.95C89.6732 114.242 91.7293 112.948 93.997 112.17Z" fill="#65B204"/>
<path d="M20.4312 152.644C20.4312 152.644 43.996 152.399 62.4453 177.906L57.8368 181.517C57.8368 181.517 42.6749 159.989 20.4312 152.644Z" fill="#834523"/>
<g style="mix-blend-mode:multiply">
<path d="M20.4312 152.644C22.3575 152.686 24.2758 152.907 26.1611 153.305H25.9767L26.7294 154.073L27.2978 153.843C27.2978 153.843 26.9291 154.519 27.2978 154.611C27.6665 154.703 31.4455 156.025 31.4455 156.025L32.275 155.548V156.516C34.0416 156.516 40.5089 161.003 40.5089 161.003L42.214 159.912L40.939 161.864L45.102 165.229L47.1297 164.261L46.162 166.12L48.3894 168.225C49.1076 167.746 49.9104 167.407 50.7551 167.226L49.2189 169.086C52.0978 171.997 54.8256 175.053 57.3913 178.244L60.7095 175.616C61.2932 176.354 61.877 177.153 62.4453 177.921L57.8368 181.532C57.8368 181.532 42.6749 159.989 20.4312 152.644Z" fill="#834523"/>
</g>
<g style="mix-blend-mode:screen">
<path d="M28.4341 154.042C40.9866 157.38 52.0648 164.816 59.9102 175.171H59.6183C59.6183 175.171 47.3443 159.467 28.4341 154.042Z" fill="#71482D"/>
</g>
<path d="M21.6619 152.89C21.8769 152.629 15.3943 153.136 10.6476 158.483L11.9379 159.39L10.1253 159.881C9.72022 163.05 10.3737 166.265 11.984 169.024L14.0732 168.901L13.0747 170.96C13.0747 170.96 16.7308 174.924 20.2025 175.939C19.7443 174.097 19.4006 172.229 19.1733 170.345L17.6371 169.7L19.3115 169.408V164.337L17.4835 163.262L19.1579 163.369C18.8322 161.544 18.8864 159.672 19.3173 157.868C19.7481 156.065 20.5463 154.37 21.6619 152.89Z" fill="#237812"/>
<path d="M21.3497 152.828C21.5648 152.828 21.6877 152.828 21.657 152.828C20.5274 154.3 19.7138 155.989 19.2671 157.79C18.8204 159.59 18.7502 161.464 19.0609 163.293L17.3864 163.185L19.2145 164.261V169.331L17.54 169.623L19.0762 170.269C19.3035 172.153 19.6472 174.021 20.1054 175.862C20.1054 175.862 14.9593 169.07 15.159 162.34C15.3181 160.364 15.9677 158.46 17.0487 156.799C18.1297 155.138 19.6081 153.773 21.3497 152.828Z" fill="#65B204"/>
<path d="M21.263 152.644C21.263 152.644 20.6485 141.089 30.8486 135.25L33.1068 134.774L31.9547 137.463L29.5122 138.077C29.8208 138.331 30.1617 138.543 30.5261 138.707C30.7718 138.707 30.0191 140.367 30.0191 140.367L27.4691 141.135L29.3432 141.366L28.3601 143.394L25.6103 143.501L27.976 144.055C26.8632 147.642 24.4751 150.698 21.263 152.644Z" fill="#237812"/>
<path d="M22.1515 152.951C21.7003 150.727 20.7669 148.629 19.4172 146.805L18.434 147.266L19.0485 146.037L15.7611 143.717L14.6858 144.254C14.7185 143.959 14.7698 143.667 14.8394 143.379C13.555 142.932 12.2171 142.658 10.8607 142.564L10.3999 143.44L10.2616 142.579C7.84965 142.471 5.43956 142.831 3.1645 143.64C1.94459 143.982 0.847096 144.664 0 145.607L3.64072 145.115L2.44251 146.651C2.44251 146.651 6.59016 149.141 7.15854 149.294L7.97271 147.927V149.463L11.5366 151L11.7978 149.694L12.4276 151.23L15.5921 152.229C15.5921 152.229 20.5693 153.505 22.1515 152.951Z" fill="#65B204"/>
<path d="M22.1515 152.952C20.6154 153.505 15.6382 152.152 15.6382 152.152L12.4737 151.154L11.8439 149.617L11.5827 150.923L8.01879 149.387V147.85L7.20463 149.218C6.63624 149.064 2.48859 146.575 2.48859 146.575L3.6868 145.038L0 145.607C8.63326 138.8 22.1515 152.952 22.1515 152.952Z" fill="#237812"/>
<path d="M23.2121 150.493C23.2121 150.493 32.4291 138.815 43.1823 149.264L41.6461 149.51L39.603 148.403L40.5094 149.586L39.3265 149.725L37.6982 148.388L38.2359 149.924L33.9499 150.047L32.4906 148.664L32.9668 150.201L28.6348 151.538L26.9911 150.324L27.4827 151.738L21.6299 152.859L23.2121 150.493Z" fill="#65B204"/>
<path d="M21.677 152.768C20.567 155.149 20.0554 157.766 20.1866 160.39C20.3178 163.015 21.0878 165.567 22.4297 167.826L23.6279 167.703L23.0749 168.932L27.1304 173.173L28.175 172.467L28.0674 173.342C30.2605 174.441 32.7322 174.859 35.1645 174.541C34.0505 172.169 33.0809 169.731 32.2612 167.242L30.725 168.057L31.8925 166.52L31.4931 165.629L28.8048 166.412L30.5714 164.553L28.006 159.559L25.2716 160.266L27.4222 158.914L25.2102 158.622L26.5927 157.454L24.78 154.581L21.677 152.768Z" fill="#B5EA00"/>
<path d="M21.6713 152.768L24.7437 154.519L26.5563 157.393L25.1738 158.561L27.3859 158.852L25.2352 160.205L27.9696 159.498L30.535 164.492L28.7684 166.351L31.4567 165.567L31.8561 166.459L30.6886 167.995L32.2248 167.181C33.0546 169.671 34.0344 172.108 35.1589 174.48C19.1366 165.951 21.6713 152.768 21.6713 152.768Z" fill="#65B204"/>
<path d="M23.0431 168.932L23.5962 167.703L22.398 167.826C21.0561 165.567 20.2861 163.015 20.1549 160.39C20.0237 157.766 20.5353 155.149 21.6452 152.768C21.6452 152.768 19.1106 165.89 35.1328 174.541C32.7005 174.859 30.2288 174.441 28.0357 173.342L28.1432 172.467L27.0986 173.173L23.0431 168.932Z" fill="#237812"/>
<g style="mix-blend-mode:screen">
<path d="M42.8282 149.156C42.8282 149.156 37.2519 144.101 32.075 145.33C28.8675 146.153 25.9722 147.9 23.749 150.354C25.5572 148.677 27.7053 147.409 30.0473 146.636L27.0518 148.449L28.9105 149.048L32.1365 148.772L30.9383 146.697L33.304 148.234L37.0522 148.418L36.023 146.744L39.1875 148.28L38.4348 147.005C39.9671 147.574 41.4389 148.295 42.8282 149.156Z" fill="#B5EA00"/>
</g>
<g style="mix-blend-mode:screen">
<path d="M4.6123 143.609C4.6123 143.609 12.2931 142.41 21.7559 152.352C19.7774 149.261 16.973 146.786 13.6603 145.207C10.8838 143.746 7.72106 143.187 4.6123 143.609Z" fill="#65B204"/>
</g>
<g style="mix-blend-mode:screen">
<path d="M20.3252 153.474C18.1631 154.875 16.5337 156.962 15.6981 159.4C14.8625 161.838 14.8691 164.485 15.7167 166.919C16.6508 170.021 18.0883 172.949 19.9719 175.585C19.9719 175.585 10.2172 163.431 20.3252 153.474Z" fill="#B5EA00"/>
</g>
<path d="M21.9056 154.211L24.3328 154.672L25.6385 157.192L23.4111 159.466L25.9765 159.067L23.918 160.496C24.9585 162.811 26.3128 164.973 27.9428 166.919L30.0627 166.826L27.9428 168.225C29.8958 170.609 32.1233 172.755 34.579 174.617C30.41 172.057 26.892 168.565 24.3021 164.414C20.8457 158.16 21.9056 154.211 21.9056 154.211Z" fill="#B5EA00"/>
<path d="M30.2162 136.187C27.7466 137.649 25.6991 139.727 24.2745 142.219C22.8499 144.711 22.0971 147.53 22.0898 150.4L24.3634 148.311L25.1775 146.482L23.795 146.375L25.3312 146.098L26.2989 143.993L24.4555 143.24L26.5601 142.333L25.4848 141.55C26.6182 139.415 28.2393 137.577 30.2162 136.187Z" fill="#65B204"/>
<path d="M149.963 102.582C149.963 102.582 126.567 120.637 128.18 160.096H135.6C135.6 160.096 133.757 127.091 149.963 102.582Z" fill="#834523"/>
<g style="mix-blend-mode:multiply">
<path d="M149.96 102.582C148.098 104.128 146.381 105.841 144.829 107.699L145.045 107.607L144.906 108.943L144.169 109.174C144.169 109.174 145.06 109.527 144.768 109.912C144.476 110.296 141.788 114.521 141.788 114.521L140.59 114.69L141.342 115.643C139.576 116.995 136.734 126.399 136.734 126.399L134.215 126.645L136.964 127.567L135.428 134.128L132.694 134.743L135.09 135.834L134.537 139.629C133.471 139.724 132.43 140.01 131.465 140.474L134.445 141.104C133.738 143.855 133.416 156.47 133.416 156.47H128.101C128.101 157.669 128.101 158.867 128.101 160.096H135.52C135.52 160.096 133.754 127.091 149.96 102.582Z" fill="#834523"/>
</g>
<g style="mix-blend-mode:screen">
<path d="M143.167 110.173C133.428 123.193 128.308 139.09 128.62 155.349L128.912 155.149C128.912 155.149 128.743 130.21 143.167 110.173Z" fill="#71482D"/>
</g>
<path d="M149.009 103.781C148.61 103.688 155.384 99.1708 164.217 100.707L163.633 102.597L165.799 101.691C168.631 104.519 170.451 108.202 170.976 112.17L168.826 113.707L171.406 114.952C171.406 114.952 170.884 121.682 168.334 125.385C167.358 123.216 166.245 121.112 165 119.085L166.076 117.195L164.202 118.209L160.284 113.2L161.252 110.711L159.716 112.124C158.605 110.069 157.08 108.266 155.237 106.83C153.394 105.394 151.273 104.355 149.009 103.781Z" fill="#237812"/>
<path d="M149.208 103.489C148.978 103.658 148.87 103.765 148.932 103.781C151.2 104.345 153.327 105.373 155.178 106.801C157.029 108.23 158.564 110.027 159.685 112.078L161.221 110.665L160.253 113.154L164.17 118.163L166.045 117.149L164.969 119.039C166.214 121.066 167.327 123.17 168.303 125.339C168.303 125.339 168.088 114.583 162.68 108.175C158.041 102.705 151.19 103.212 149.208 103.489Z" fill="#65B204"/>
<path d="M149.147 103.228C149.147 103.228 140.791 91.3805 126.197 93.5318L123.616 94.8225L126.827 96.5742L129.699 95.2681C129.598 95.7609 129.427 96.2369 129.192 96.6818C128.977 96.9122 130.99 97.9264 130.99 97.9264L134.062 96.6971L132.403 98.3413L134.938 99.5705L137.734 97.5422L135.829 99.9393C139.713 102.636 144.455 103.806 149.147 103.228Z" fill="#237812"/>
<path d="M148.502 104.226C147.207 101.679 146.488 98.8773 146.398 96.0207L147.734 95.6981L146.198 94.9759L147.627 90.1356L149.163 89.8283C148.909 89.5636 148.637 89.3172 148.349 89.0907C149.26 87.6491 150.366 86.3407 151.636 85.2032L152.758 85.7103L152.082 84.7422C154.376 82.7654 157.031 81.2521 159.901 80.2861C161.359 79.6867 162.958 79.5162 164.509 79.7944L160.515 82.13L162.896 82.6986C162.896 82.6986 160.73 88.3532 160.3 88.9678L158.426 88.2456L159.563 89.7822L157.243 94.0385L155.968 92.9476L156.506 94.9451L154.294 98.341C154.294 98.341 150.546 103.535 148.502 104.226Z" fill="#65B204"/>
<path d="M148.504 104.227C150.547 103.535 154.296 98.3414 154.296 98.3414L156.692 94.9455L156.155 92.948L157.43 94.0389L159.765 89.7826L158.628 88.246L160.502 88.9682C160.932 88.3536 163.098 82.6989 163.098 82.6989L160.717 82.1304L164.711 79.7948C150.824 79.7948 148.504 104.227 148.504 104.227Z" fill="#237812"/>
<path d="M145.569 102.628C145.569 102.628 127.411 98.3414 124.938 116.903L126.612 115.997L127.765 113.308V115.182L129.04 114.383L129.608 111.802L130.222 113.676L134.539 110.465L134.908 107.991L135.614 109.866L140.929 107.822L141.605 105.348L142.22 107.115L148.856 103.673L145.569 102.628Z" fill="#65B204"/>
<path d="M148.84 103.673C151.771 105.157 154.298 107.33 156.203 110.007C158.108 112.684 159.335 115.783 159.778 119.039L158.502 119.838L160.039 120.622L159.332 127.936L157.796 128.059L158.595 128.842C157.293 131.632 155.185 133.966 152.542 135.542C151.809 132.333 150.88 129.172 149.762 126.077L151.928 125.646L149.547 124.986L149.239 123.802L152.496 122.481L149.316 122.02L147.872 115.244L151.114 113.707L147.964 114.03L149.915 112.032H147.642L147.196 107.776L148.84 103.673Z" fill="#B5EA00"/>
<path d="M148.84 103.673L147.196 107.745L147.642 112.002H149.915L147.964 113.999L151.114 113.707L147.872 115.244L149.224 122.158L152.404 122.619L149.147 123.941L149.454 125.124L151.836 125.785L149.67 126.215C150.788 129.311 151.716 132.472 152.45 135.68C161.513 114.629 148.84 103.673 148.84 103.673Z" fill="#65B204"/>
<path d="M159.99 120.683L158.454 119.899L159.729 119.1C159.287 115.844 158.06 112.745 156.155 110.068C154.249 107.392 151.723 105.218 148.792 103.734C148.792 103.734 161.465 114.69 152.401 135.665C155.044 134.088 157.153 131.754 158.454 128.965L157.655 128.182L159.191 128.059L159.99 120.683Z" fill="#237812"/>
<g style="mix-blend-mode:screen">
<path d="M125.184 116.549C125.184 116.549 126.72 107.238 132.773 104.441C136.568 102.764 140.769 102.23 144.862 102.905C144.862 102.905 139.086 102.474 135.784 104.134L140.131 103.596L138.764 105.64L135.369 107.852L134.954 104.887L133.787 108.221L130.253 111.294L129.962 108.836L127.995 112.769L127.749 110.926C126.708 112.71 125.849 114.594 125.184 116.549Z" fill="#B5EA00"/>
</g>
<g style="mix-blend-mode:screen">
<path d="M158.58 81.4391C158.58 81.4391 150.131 86.0488 148.488 103.289C148.026 98.7234 148.85 94.1192 150.869 89.9979C154.202 83.3905 158.58 81.4391 158.58 81.4391Z" fill="#65B204"/>
</g>
<g style="mix-blend-mode:screen">
<path d="M150.715 103.32C153.933 103.006 157.162 103.785 159.884 105.529C162.607 107.274 164.663 109.884 165.723 112.939C167.187 116.752 168.007 120.781 168.15 124.863C168.15 124.863 168.381 105.271 150.715 103.32Z" fill="#B5EA00"/>
</g>
<path d="M149.716 105.272L147.688 107.561L148.364 111.065L152.312 111.572L149.486 113.108L152.558 112.924C153.331 116.012 153.672 119.192 153.572 122.374L151.421 123.91L154.601 123.634C154.531 127.496 154.016 131.337 153.065 135.081C153.065 135.081 156.675 125.862 155.246 117.026C153.818 108.191 149.716 105.272 149.716 105.272Z" fill="#B5EA00"/>
<path d="M127.504 93.9773C131.07 93.5007 134.698 93.9582 138.035 95.3049C141.371 96.6516 144.301 98.8415 146.537 101.66L142.712 101.414L140.5 100.262L141.775 99.0634L140.116 99.8778L137.55 98.541L138.779 96.3744L135.999 97.112L136.444 95.4986C136.444 95.4986 133.649 93.9466 127.504 93.9773Z" fill="#65B204"/>
<path d="M107.793 81.0389C107.793 81.0389 95.2424 117.01 124.599 158.56L132.571 153.274C132.571 153.274 107.532 118.931 107.793 81.0389Z" fill="#865537"/>
<g style="mix-blend-mode:multiply">
<path d="M107.79 81.0389C106.861 84.0159 106.203 87.0708 105.824 90.1663C105.885 90.088 105.942 90.0059 105.993 89.9204L106.792 91.457L106.146 92.2253C106.146 92.2253 107.375 91.9794 107.314 92.5941C107.252 93.2087 107.314 99.7084 107.314 99.7084L106.146 100.707L107.682 101.23C106.73 103.919 110.263 116.165 110.263 116.165L107.682 118.224L111.308 117.302L114.38 125.431L111.846 128.028L115.118 127.536L117.176 132.023C116.076 132.867 115.143 133.909 114.426 135.096L118.082 133.682C119.25 137.155 127.714 150.954 127.714 150.954L121.969 154.672C122.798 155.947 123.674 157.238 124.596 158.529L132.568 153.243C132.568 153.243 107.529 118.931 107.79 81.0389Z" fill="#865537"/>
</g>
<g style="mix-blend-mode:screen">
<path d="M105.778 94.0232C104.382 114.949 109.998 135.744 121.739 153.12L121.923 152.69C121.923 152.69 104.227 125.831 105.778 94.0232Z" fill="#71482D"/>
</g>
<path d="M107.528 83.0523C107.021 83.2367 111.184 73.5716 121.845 69.1002L122.537 71.5433L124.242 69.0387C129.294 70.0726 133.866 72.7399 137.253 76.6294L135.978 79.7794L139.65 79.3184C139.65 79.3184 143.813 87.0014 143.551 92.8097C140.977 91.1482 138.299 89.6546 135.533 88.3382L135.364 85.5416L134.058 87.9387L126.377 85.2804L125.686 81.9153L124.887 84.5121C122.249 83.0881 119.346 82.2235 116.36 81.9724C113.373 81.7212 110.367 82.0888 107.528 83.0523Z" fill="#237812"/>
<path d="M107.606 82.5604C107.467 82.8985 107.452 83.0829 107.606 83.0521C110.449 82.1003 113.458 81.7454 116.445 82.0098C119.432 82.2742 122.332 83.1521 124.964 84.5887L125.686 81.9612L126.378 85.3263L134.058 87.9846L135.364 85.5875L135.533 88.3841C138.299 89.7005 140.978 91.1941 143.552 92.8556C143.552 92.8556 135.871 81.4387 125.425 78.2426C116.623 75.4921 109.557 80.8548 107.606 82.5604Z" fill="#65B204"/>
<path d="M107.374 82.3145C107.374 82.3145 90.0003 75.2924 75.7293 87.9385L73.8398 91.1499L78.5405 90.7811L80.7526 87.3699C80.9834 87.9723 81.1332 88.6027 81.1981 89.2446C81.1981 89.6441 84.0093 89.3367 84.0093 89.3367L86.5132 85.8333L85.8373 88.8143L89.4473 88.3533L90.9835 84.2045L90.6302 88.1228C96.7375 88.3236 102.703 86.2544 107.374 82.3145Z" fill="#237812"/>
<path d="M107.363 83.8514C107.363 83.8514 101.802 80.6553 99.3291 76.4297L100.558 75.1544L98.3152 75.477L96.4718 69.2385L97.839 67.8556C97.3778 67.7556 96.911 67.6838 96.4411 67.6405C96.4197 65.436 96.6988 63.239 97.2706 61.11L98.8068 60.8795L97.5625 60.2187C98.6699 56.4643 100.49 52.9584 102.924 49.8929C104.113 48.2023 105.76 46.8858 107.67 46.0975L104.998 51.4295L107.978 50.3692C107.978 50.3692 109.606 58.0522 109.514 58.9741L106.995 59.4966L109.299 60.3878L109.76 66.6263L107.609 66.319L109.606 68.1014L109.529 73.4487C109.529 73.4487 109.068 81.7002 107.363 83.8514Z" fill="#65B204"/>
<path d="M107.362 83.8514C109.067 81.7002 109.528 73.4487 109.528 73.4487L109.651 68.0861L107.654 66.3036L109.804 66.6109L109.343 60.3724L107.039 59.4812L109.558 58.9587C109.558 58.0061 108.022 50.3539 108.022 50.3539L105.042 51.4141L107.669 46.0975C92.7374 55.778 107.362 83.8514 107.362 83.8514Z" fill="#237812"/>
<path d="M103.063 84.1739C103.063 84.1739 80.3734 92.2102 90.7732 114.107L91.9561 111.94L91.3109 108.221L92.6627 110.25L93.4769 108.483L92.2787 105.287L94.2603 106.823L96.6721 100.323L95.3356 97.3731L97.4248 98.9097L101.741 92.9631L100.728 89.89L102.632 91.4266L107.41 82.9753L103.063 84.1739Z" fill="#B5EA00"/>
<path d="M107.346 82.9754C111.569 82.5175 115.84 83.0969 119.788 84.6633C123.737 86.2297 127.243 88.7358 130.005 91.9644L129.19 93.7315L131.356 93.5163L135.735 101.952L134.091 103.197L135.504 103.473C136.061 107.419 135.413 111.442 133.645 115.013C133.645 115.013 125.826 107.638 123.998 106.716L126.041 104.749L122.969 105.686L121.802 104.626L124.428 100.923L120.695 102.644L114.366 96.1285L116.886 92.3024L113.675 94.8839L114.382 91.3498L111.863 92.8863L108.406 88.5993L107.346 82.9754Z" fill="#B5EA00"/>
<path d="M107.346 82.9753L108.437 88.5378L111.893 92.8249L114.413 91.2883L113.675 94.8839L116.855 92.3024L114.336 96.1285L120.665 102.644L124.428 100.923L121.832 104.626L123 105.686L126.072 104.749L124.029 106.716C125.857 107.638 133.676 115.013 133.676 115.013C128.745 85.9563 107.346 82.9753 107.346 82.9753Z" fill="#B5EA00"/>
<path d="M131.356 93.5624L129.19 93.7315L130.005 91.9644C127.243 88.7358 123.737 86.2297 119.788 84.6633C115.84 83.0969 111.569 82.5175 107.346 82.9754C107.346 82.9754 128.745 85.9563 133.645 115.013C135.399 111.454 136.041 107.449 135.489 103.52L134.076 103.243L135.719 101.998L131.356 93.5624Z" fill="#65B204"/>
<g style="mix-blend-mode:screen">
<path d="M90.7887 113.554C90.7887 113.554 85.9651 102.367 90.5122 95.1147C93.4554 90.6407 97.6339 87.1176 102.54 84.9733C102.54 84.9733 95.9656 88.5842 93.5692 92.6562L97.8858 89.122V92.2874L95.7659 97.0816L93.2312 94.162L94.3219 98.5874L92.6321 104.365L90.6351 101.906L91.2188 107.561L89.6827 105.733C89.7867 108.37 90.1573 110.991 90.7887 113.554Z" fill="#B5EA00"/>
</g>
<g style="mix-blend-mode:screen">
<path d="M102.236 52.0286C102.236 52.0286 96.4139 63.092 106.706 82.7603C103.003 78.147 100.662 72.5909 99.947 66.7183C98.9178 57.299 102.236 52.0286 102.236 52.0286Z" fill="#65B204"/>
</g>
<g style="mix-blend-mode:screen">
<path d="M109.064 81.3005C109.064 81.3005 119.956 72.081 132.107 81.1776C136.367 84.2772 140.084 88.0625 143.106 92.3793C143.106 92.3793 129.618 71.0207 109.064 81.3005Z" fill="#B5EA00"/>
</g>
<g style="mix-blend-mode:screen">
<path d="M109.418 84.1278L108.85 88.0768L112.137 91.3805L116.746 89.1217L114.795 92.8249L118.067 90.4124C121.052 93.2205 123.637 96.4262 125.748 99.9393L124.519 103.135L127.76 100.6C130.383 104.838 132.506 109.365 134.089 114.091C134.089 114.091 131.509 101.568 123.766 93.0246C116.024 84.4812 109.418 84.1278 109.418 84.1278Z" fill="#B5EA00"/>
</g>
<path d="M77.5132 87.4622C81.0366 84.4395 85.2847 82.3843 89.8411 81.498C94.3976 80.6118 99.1061 80.925 103.505 82.4069L99.1117 84.8193L95.8857 85.1113L96.4388 82.9754L95.2406 85.0344L91.5384 85.4032L91.3387 82.1917L88.8501 84.9269L88.2049 82.8832C88.2049 82.8832 84.1187 83.1444 77.5132 87.4622Z" fill="#65B204"/>
<path d="M161.685 173.004C161.685 173.004 178.352 156.47 187.262 134.728C196.172 112.985 198.507 107.776 198.507 107.776C198.507 107.776 206.326 105.517 208.415 104.949C213.115 103.658 220.228 103.52 223.377 106.362C225.512 108.498 225.113 107.177 226.449 106.255C227.786 105.333 228.155 106.024 230.182 108.759C232.21 111.495 232.302 112.878 233.715 113.123C235.129 113.369 234.714 113.415 235.405 116.012C236.557 120.268 247.172 177.983 246.373 208.207C246.343 208.269 223.116 177.737 161.685 173.004Z" fill="#783700"/>
<g style="mix-blend-mode:multiply" opacity="0.5">
<path d="M197.366 121.098C202.159 114.783 199.624 134.636 198.565 144.147C197.505 153.658 203.173 138.661 208.242 130.948C213.312 123.234 217.367 129.411 217.121 145.883C216.876 162.356 221.653 144.347 223.988 139.061C226.323 133.775 228.597 147.005 229.165 152.229C229.733 157.454 232.852 145.714 234.081 140.213C235.31 134.712 235.11 135.819 237.353 144.485C239.15 151.477 240.103 152.552 240.64 146.022C238.244 130.226 235.878 117.902 235.371 116.012C234.68 113.415 235.095 113.354 233.681 113.123C232.268 112.893 232.145 111.51 230.148 108.759C228.151 106.009 227.721 105.333 226.415 106.255C225.11 107.177 225.509 108.498 223.343 106.362C220.271 103.52 213.081 103.658 208.381 104.949C206.291 105.517 198.472 107.776 198.472 107.776C198.472 107.776 196.137 112.985 187.228 134.728C186.46 136.602 185.691 138.446 184.754 140.244L184.939 140.121C184.939 140.121 192.527 127.706 197.366 121.098Z" fill="#783700"/>
</g>
<path d="M202.867 130.395L207.875 119.224L212.484 117.779L213.452 120.084L217 116.335L221.793 118.886L220.257 138.984L224.574 122.773L227.769 119.347L229.843 144.439L230.641 118.778L234.866 113.892C234.697 113.369 234.497 113.292 233.683 113.154C232.27 112.908 232.147 111.541 230.15 108.79C228.153 106.04 227.723 105.364 226.417 106.286C225.111 107.208 225.511 108.529 223.345 106.393C220.272 103.55 213.083 103.689 208.382 104.979C206.293 105.548 198.474 107.807 198.474 107.807L198.213 108.421C199.534 110.542 202.821 115.92 204.358 118.455C203.712 126.077 202.867 130.395 202.867 130.395Z" fill="#A15603"/>
<path d="M213.081 134.405C212.016 137.494 211.138 140.645 210.454 143.84C209.486 147.603 208.712 151.414 208.134 155.256C207.811 157.869 207.182 166.443 207.182 166.443C208.621 162.341 209.781 158.147 210.653 153.889C211.206 149.648 213.081 134.405 213.081 134.405Z" fill="#A15603"/>
<path d="M213.079 115.505L213.954 117.334L218.378 114.122L223.924 117.057L223.632 122.266L226.366 117.272L230.191 116.934L233.018 112.862C232.173 112.324 231.804 111.003 230.145 108.759C228.118 106.024 227.718 105.333 226.412 106.255C225.107 107.177 225.506 108.498 223.34 106.362C220.268 103.52 213.079 103.658 208.378 104.949C206.427 105.471 199.453 107.484 198.577 107.745L206.104 117.288L213.079 115.505Z" fill="#EC7521"/>
<g style="mix-blend-mode:multiply">
<path d="M220.828 110.634C217.369 109.772 213.768 109.652 210.259 110.281C207.605 110.633 205.095 111.695 202.993 113.354L206.142 117.333L213.086 115.551L213.961 117.38L218.386 114.168L223.931 117.103L223.639 122.312L226.374 117.318L230.199 116.98L230.736 116.212C228.031 113.447 224.594 111.512 220.828 110.634Z" fill="#EC7521"/>
</g>
<path d="M205.015 115.951C205.015 115.951 204.647 114.506 206.874 111.879C209.102 109.251 210.484 105.855 209.532 103.735C208.579 101.614 206.659 102.321 203.618 100.938C202.959 100.63 202.368 100.192 201.882 99.6511C201.395 99.1103 201.022 98.4773 200.784 97.7895C200.546 97.1018 200.449 96.3733 200.497 95.6472C200.546 94.9212 200.74 94.2123 201.067 93.5625C202.22 90.8888 201.252 87.4162 191.267 85.142C185.672 83.7102 179.969 82.7389 174.215 82.2379C169.084 81.8691 162.494 80.9625 160.528 74.8008C159.207 69.8069 156.565 70.0681 151.48 70.6674C146.395 71.2666 140.389 69.392 138.269 62.8923C137.684 61.0356 137.543 59.0672 137.858 57.1461C138.174 55.225 138.937 53.405 140.085 51.8331C141.233 50.2612 142.735 48.9815 144.469 48.0972C146.203 47.213 148.12 46.749 150.067 46.7428C156.887 46.3432 157.609 46.374 160.666 41.8103C163.723 37.2467 168.578 36.8164 177.564 37.8459C186.551 38.8754 192.511 37.8459 193.31 33.2362C194.109 28.6264 196.782 22.7106 204.386 22.5569C206.316 22.4979 208.22 23.0103 209.86 24.03C211.499 25.0497 212.802 26.5311 213.603 28.2884C213.97 28.9045 214.496 29.4104 215.126 29.7531C215.756 30.0957 216.466 30.2624 217.183 30.2357C217.899 30.209 218.595 29.9898 219.198 29.6012C219.8 29.2126 220.287 28.6689 220.608 28.0271C221.975 25.461 223.803 21.512 228.135 22.8642C232.467 24.2164 235.186 22.941 233.266 20.7437C231.345 18.5464 233.066 17.0713 235.094 16.7947C237.121 16.5181 239.794 12.9225 235.339 11.6471C230.885 10.3718 228.258 5.76203 232.943 1.98203C237.628 -1.79797 245.079 -0.153824 245.616 7.68276C246.154 15.5193 248.934 13.2298 253.297 12.4001C257.66 11.5703 264.788 12.2311 267.66 17.6706C270.533 23.1101 270.164 28.5803 263.436 31.4998C256.707 34.4193 254.926 32.1145 252.406 36.463C249.887 40.8115 245.294 46.5737 236.676 45.2984C228.058 44.023 227.659 45.2215 225.569 49.5393C223.48 53.8571 222.989 59.7884 210.361 60.741C201.774 61.2481 199.777 56.1313 197.196 54.0262C193.279 50.7686 187.365 51.414 185.614 55.5627C183.862 59.7115 180.421 60.3876 175.367 57.7601C170.313 55.1325 163.462 56.6537 162.571 60.9715C161.957 64.0447 163.754 66.1652 166.596 64.1523C169.438 62.1393 170.528 63.5837 170.221 66.6415C169.914 69.6993 173.002 75.861 178.486 72.9415C183.97 70.022 190.376 65.2586 195.215 67.3791C200.054 69.4996 196.751 72.7418 199.823 74.7086C202.896 76.6754 206.26 73.5254 211.083 72.5881C215.907 71.6508 220.669 71.8352 224.095 76.0454C227.52 80.2557 225.631 82.3301 221.022 83.8359C216.414 85.3418 215.062 89.1218 220.162 90.3971C225.262 91.6725 229.717 94.0081 229.379 98.71C229.041 103.412 222.405 104.272 226.568 108.513C229.302 110.742 228.611 112.293 227.044 117.211H226.414L223.803 121.82L223.972 116.995L218.426 114.061L214.002 117.272L213.126 115.443L206.183 117.226L205.015 115.951Z" fill="#E1E1E1"/>
<path d="M213.42 112.247C213.404 112.429 213.318 112.598 213.181 112.719C213.043 112.839 212.865 112.901 212.682 112.893C212.507 112.839 212.359 112.72 212.27 112.559C212.181 112.398 212.158 112.21 212.206 112.032C212.203 111.939 212.221 111.845 212.258 111.759C212.296 111.673 212.352 111.597 212.423 111.536C212.494 111.474 212.578 111.429 212.668 111.404C212.758 111.379 212.853 111.375 212.945 111.391C213.038 111.408 213.125 111.445 213.202 111.499C213.278 111.554 213.341 111.624 213.387 111.706C213.432 111.788 213.459 111.88 213.464 111.973C213.47 112.067 213.455 112.16 213.42 112.247Z" fill="#BABABA"/>
<path d="M222.145 105.532C221.945 106.731 221.116 107.591 220.317 107.453C219.518 107.315 219.011 106.224 219.226 105.041C219.441 103.858 220.256 102.982 221.054 103.12C221.853 103.258 222.345 104.334 222.145 105.532Z" fill="#BABABA"/>
<path d="M216.433 98.8946C216.264 99.7637 215.842 100.564 215.221 101.194C214.599 101.825 213.806 102.258 212.939 102.44C212.073 102.621 211.172 102.543 210.35 102.216C209.527 101.888 208.82 101.325 208.316 100.597C207.812 99.8691 207.533 99.0087 207.516 98.1234C207.498 97.2381 207.741 96.3672 208.216 95.6197C208.691 94.8722 209.375 94.2813 210.184 93.9209C210.992 93.5604 211.889 93.4465 212.762 93.5933C213.945 93.8213 214.992 94.5039 215.679 95.4949C216.365 96.4858 216.636 97.7062 216.433 98.8946Z" fill="#BABABA"/>
<path d="M219.122 77.6588C219.061 78.0694 218.88 78.4527 218.6 78.7597C218.321 79.0667 217.957 79.2836 217.554 79.3826C217.151 79.4817 216.727 79.4585 216.338 79.316C215.948 79.1735 215.609 78.9181 215.365 78.5824C215.121 78.2468 214.983 77.846 214.967 77.4312C214.952 77.0164 215.06 76.6064 215.279 76.2535C215.497 75.9005 215.816 75.6206 216.194 75.4495C216.572 75.2783 216.992 75.2237 217.401 75.2924C217.67 75.3336 217.928 75.4276 218.161 75.5691C218.393 75.7106 218.595 75.8967 218.755 76.1167C218.915 76.3368 219.03 76.5864 219.093 76.851C219.156 77.1157 219.165 77.3903 219.122 77.6588Z" fill="#BABABA"/>
<path d="M200.04 81.7616C199.875 82.2199 199.554 82.6055 199.133 82.8507C198.712 83.0959 198.218 83.1851 197.738 83.1026C197.258 83.0202 196.823 82.7713 196.508 82.3997C196.193 82.028 196.018 81.5573 196.016 81.0701C196.181 80.6117 196.502 80.2262 196.923 79.981C197.344 79.7357 197.838 79.6466 198.318 79.729C198.798 79.8115 199.233 80.0604 199.548 80.432C199.863 80.8037 200.038 81.2743 200.04 81.7616Z" fill="#BABABA"/>
<path d="M152.559 59.8032C152.328 61.0873 151.722 62.2741 150.817 63.214C149.912 64.1539 148.75 64.8048 147.476 65.0847C146.202 65.3646 144.873 65.261 143.658 64.7868C142.443 64.3126 141.395 63.4892 140.647 62.4203C139.899 61.3514 139.484 60.0849 139.455 58.7805C139.425 57.4761 139.783 56.1921 140.482 55.0905C141.181 53.9889 142.19 53.119 143.383 52.5904C144.575 52.0618 145.897 51.8983 147.183 52.1203C148.914 52.4276 150.452 53.4091 151.46 54.8495C152.468 56.2899 152.863 58.0715 152.559 59.8032Z" fill="#BABABA"/>
<path d="M171.343 49.1702C171.308 49.4442 171.192 49.7015 171.01 49.909C170.828 50.1165 170.588 50.2647 170.321 50.3345C170.054 50.4043 169.772 50.3925 169.512 50.3006C169.251 50.2088 169.024 50.0411 168.86 49.8191C168.696 49.5971 168.602 49.331 168.59 49.0551C168.578 48.7792 168.65 48.5061 168.794 48.271C168.939 48.0359 169.151 47.8496 169.403 47.736C169.654 47.6224 169.934 47.5867 170.206 47.6336C170.555 47.6976 170.867 47.8919 171.078 48.1773C171.289 48.4626 171.384 48.8176 171.343 49.1702Z" fill="#BABABA"/>
<path d="M175.843 42.9163C175.794 43.1687 175.672 43.4009 175.491 43.584C175.311 43.7671 175.08 43.8928 174.829 43.9453C174.577 43.9979 174.315 43.975 174.077 43.8795C173.838 43.784 173.633 43.6202 173.487 43.4086C173.341 43.1969 173.261 42.9469 173.256 42.6898C173.252 42.4327 173.323 42.18 173.461 41.9634C173.6 41.7467 173.799 41.5758 174.034 41.472C174.269 41.3681 174.53 41.336 174.783 41.3797C174.955 41.4092 175.118 41.4727 175.265 41.5663C175.411 41.66 175.538 41.7819 175.636 41.925C175.735 42.0682 175.804 42.2296 175.84 42.3998C175.875 42.57 175.877 42.7456 175.843 42.9163Z" fill="#BABABA"/>
<path d="M211.717 34.404C211.449 35.8941 210.747 37.2719 209.699 38.3643C208.651 39.4567 207.304 40.215 205.826 40.544C204.349 40.8731 202.807 40.7581 201.395 40.2137C199.982 39.6692 198.762 38.7195 197.888 37.4838C197.013 36.2481 196.523 34.7815 196.479 33.2681C196.435 31.7548 196.839 30.2621 197.641 28.9777C198.442 27.6932 199.605 26.6742 200.983 26.0485C202.361 25.4229 203.894 25.2185 205.388 25.4611C206.394 25.6245 207.358 25.9867 208.223 26.5266C209.088 27.0665 209.837 27.7733 210.426 28.6057C211.015 29.4381 211.433 30.3795 211.654 31.375C211.876 32.3705 211.897 33.4002 211.717 34.404Z" fill="#BABABA"/>
<path d="M215.064 50.3229C214.971 50.8619 214.721 51.3612 214.344 51.7577C213.968 52.1543 213.482 52.4303 212.949 52.5508C212.416 52.6714 211.858 52.6311 211.348 52.435C210.838 52.239 210.397 51.8959 210.081 51.4493C209.766 51.0027 209.59 50.4725 209.575 49.9258C209.561 49.3791 209.709 48.8404 210 48.3778C210.292 47.9152 210.714 47.5494 211.214 47.3268C211.713 47.1041 212.267 47.0345 212.806 47.1268C213.164 47.1882 213.507 47.3196 213.814 47.5134C214.122 47.7073 214.388 47.9599 214.597 48.2567C214.807 48.5535 214.956 48.8888 215.036 49.2434C215.117 49.5979 215.126 49.9647 215.064 50.3229Z" fill="#BABABA"/>
<path d="M242.051 40.9963C241.621 43.4548 238.886 45.0375 235.906 44.5458C234.586 44.4283 233.363 43.7978 232.502 42.7896C231.64 41.7814 231.208 40.4757 231.298 39.1524C231.744 37.9334 232.603 36.9094 233.725 36.2587C234.848 35.608 236.164 35.3717 237.443 35.591C238.722 35.8103 239.883 36.4713 240.725 37.459C241.567 38.4466 242.036 39.6984 242.051 40.9963Z" fill="#BABABA"/>
<path d="M224.605 31.93C224.572 32.1248 224.481 32.3053 224.345 32.4488C224.209 32.5922 224.034 32.6921 223.841 32.7358C223.649 32.7795 223.447 32.765 223.263 32.6942C223.078 32.6234 222.919 32.4995 222.805 32.3381C222.691 32.1767 222.628 31.9851 222.622 31.7876C222.617 31.59 222.671 31.3954 222.776 31.2283C222.882 31.0612 223.035 30.9292 223.215 30.849C223.396 30.7687 223.596 30.7439 223.791 30.7775C224.051 30.8226 224.283 30.9693 224.436 31.1853C224.589 31.4014 224.649 31.6692 224.605 31.93Z" fill="#BABABA"/>
<path d="M256.952 23.0486C256.893 23.4078 256.729 23.7416 256.481 24.0078C256.232 24.274 255.911 24.4608 255.557 24.5445C255.203 24.6283 254.832 24.6054 254.49 24.4786C254.149 24.3518 253.853 24.1269 253.64 23.8321C253.426 23.5373 253.305 23.1859 253.29 22.8222C253.276 22.4585 253.37 22.0986 253.56 21.7881C253.75 21.4775 254.027 21.2302 254.357 21.0771C254.688 20.9241 255.056 20.8722 255.415 20.9281C255.657 20.9635 255.889 21.0469 256.097 21.1733C256.306 21.2998 256.487 21.4667 256.63 21.6644C256.774 21.862 256.876 22.0863 256.931 22.324C256.986 22.5617 256.993 22.8081 256.952 23.0486Z" fill="#BABABA"/>
<path d="M193.741 131.086L190.669 137.801C188.933 141.611 190.3 141.366 186.475 148.91C182.65 156.455 179.486 163.047 179.486 163.047C179.486 163.047 184.786 159.482 185.799 157.131C187.72 152.071 189.366 146.911 190.731 141.673C191.898 136.925 193.741 131.086 193.741 131.086Z" fill="#A15603"/>
<path d="M232.268 57.253C232.211 57.5106 232.058 57.7366 231.839 57.8844C231.62 58.0321 231.354 58.0903 231.093 58.0469C230.833 58.0036 230.6 57.8619 230.441 57.6513C230.282 57.4406 230.21 57.1771 230.24 56.9149C230.297 56.6573 230.45 56.4313 230.669 56.2835C230.887 56.1358 231.154 56.0776 231.414 56.1209C231.675 56.1643 231.908 56.3059 232.067 56.5166C232.226 56.7272 232.298 56.9908 232.268 57.253Z" fill="#BABABA"/>
<path d="M258.535 55.4093C258.313 56.706 257.711 57.9078 256.806 58.8626C255.902 59.8174 254.734 60.4824 253.451 60.7736C252.169 61.0647 250.828 60.969 249.6 60.4984C248.372 60.0278 247.311 59.2035 246.551 58.1297C245.79 57.0559 245.366 55.7809 245.33 54.4657C245.294 53.1505 245.649 51.8543 246.35 50.7408C247.051 49.6274 248.066 48.7467 249.267 48.2101C250.468 47.6736 251.801 47.5052 253.097 47.7264C254.835 48.0269 256.384 49.0042 257.403 50.4442C258.422 51.8842 258.829 53.6696 258.535 55.4093Z" fill="#BABABA"/>
<path d="M33.7025 233.991C33.7025 233.991 18.8785 236.465 21.6283 238.6C24.378 240.736 50.416 244.993 61.8912 246.16C73.3664 247.328 78.1746 248.496 74.8257 250.094C71.4769 251.692 67.5904 254.058 85.7325 256.609C103.875 259.16 143.431 261.711 157.671 257.055C157.671 257.055 160.866 255.887 159.422 254.151C157.978 252.414 148.808 251.078 159.714 249.925C170.621 248.773 230.055 250.217 223.373 253.275C216.691 256.333 218.288 259.083 230.486 260.543C242.683 262.003 265.08 261.419 265.664 257.777C265.664 257.777 266.247 255.887 263.344 255.165C260.441 254.443 256.8 252.553 263.636 252.399C270.472 252.245 292.823 253.121 298.077 247.789C303.331 242.457 272.3 233.699 272.3 233.699L33.7025 233.991Z" fill="#3E61CA"/>
<g style="mix-blend-mode:multiply">
<path opacity="0.6" d="M263.638 252.461C270.459 252.323 292.825 253.183 298.079 247.851C302.334 243.487 282.717 236.926 275.159 234.606L273.377 234.775C273.377 234.775 299.093 242.043 294.745 246.837C290.398 251.631 274.775 251.016 262.225 251.447C255.834 251.631 255.496 252.215 260.289 255.703C265.082 259.191 259.275 260.113 244.743 259.975C230.211 259.836 222.361 256.625 227 254.873C231.64 253.122 230.073 251.969 219.596 250.663C209.119 249.357 168.58 246.161 159.686 246.883C150.791 247.605 146.459 249.495 148.779 251.109C151.098 252.722 154.294 254.443 144.862 255.718C135.429 256.994 102.218 258.238 87.3935 256.056C72.5695 253.874 80.0967 252.323 80.8033 249.08C82.2166 242.734 29.9408 240.414 24.9944 238.816C21.5073 237.679 27.2986 235.589 29.6029 234.852C25.4399 235.758 19.8021 237.295 21.5995 238.708C24.3646 240.89 50.3872 245.101 61.8624 246.268C73.3376 247.436 78.1458 248.604 74.7969 250.202C71.4481 251.8 67.5923 254.059 85.7344 256.61C103.877 259.16 143.433 261.711 157.673 257.055C157.673 257.055 160.868 255.887 159.424 254.151C157.98 252.415 148.809 251.078 159.716 249.925C170.623 248.773 230.057 250.217 223.375 253.275C216.693 256.333 218.29 259.084 230.487 260.543C242.685 262.003 265.082 261.419 265.666 257.777C265.666 257.777 266.249 255.887 263.346 255.165C260.443 254.443 256.802 252.615 263.638 252.461Z" fill="#3E61CA"/>
</g>
<path d="M262.219 206.379C264.555 205.703 267.024 205.634 269.393 206.179C268.078 204.42 266.343 203.02 264.346 202.107C262.348 201.194 260.154 200.798 257.964 200.955C259.217 198.366 261.345 196.303 263.97 195.131C255.445 193.395 250.99 198.035 250.99 198.035C251.174 195.131 254.661 191.643 254.661 191.643C250.99 192.027 247.503 196.883 247.503 196.883C247.605 195.764 247.385 194.64 246.867 193.643C246.35 192.646 245.557 191.819 244.584 191.259C245.752 194.547 242.848 200.371 242.848 200.371L255.061 209.483C261.451 207.946 269.193 211.219 269.193 211.219C267.418 208.93 264.984 207.241 262.219 206.379Z" fill="#237812"/>
<path d="M245.328 192.488C245.328 192.488 247.14 196.56 246.126 199.403L256.511 208.484C256.511 208.484 263.408 208.269 267.925 210.451C264.897 207.955 261.095 206.592 257.171 206.594C260.761 205.103 264.733 204.796 268.508 205.718C268.508 205.718 260.95 202.092 254.99 204.181C254.99 204.181 257.817 196.913 263.132 195.315C263.132 195.315 253.823 195.607 249.829 200.985C249.829 200.985 250.259 194.839 253.454 192.488C253.454 192.488 247.509 194.731 246.987 199.095C247.334 197.947 247.364 196.726 247.072 195.562C246.779 194.398 246.177 193.336 245.328 192.488Z" fill="#10481B"/>
<path d="M45.764 215.675C45.764 215.675 39.7576 194.747 39.3582 163.339L44.4122 158.883C44.4122 158.883 37.8221 129.411 36.8696 119.854L43.0143 107.254L45.9177 106.285C45.9177 106.285 49.8349 79.595 54.2898 71.4511C54.2898 71.4511 54.4895 70.483 55.8259 70.8826C57.1624 71.2821 69.7743 75.7228 75.9804 82.3147L81.9869 102.29C84.297 103.149 86.5067 104.257 88.577 105.594C90.1132 106.946 100.974 125.754 103.493 133.898C103.493 133.898 106.98 129.042 107.764 129.042C108.547 129.042 114.154 135.634 120.36 149.986C123.263 150.917 126.11 152.015 128.886 153.274C130.422 154.242 148.856 215.306 148.856 215.306L45.764 215.675Z" fill="#BF735B"/>
<path d="M69.4053 165.275L63.3989 153.074L46.7315 145.514L44.4119 158.883L39.3579 163.339C39.7573 194.747 45.7637 215.675 45.7637 215.675L95.981 215.49L74.2443 165.859L69.4053 165.275Z" fill="#DA927E"/>
<path d="M97.8839 150.354L93.0449 153.074L98.9745 215.475L148.854 215.29C148.854 215.29 130.42 154.227 128.884 153.259C126.108 151.999 123.261 150.901 120.358 149.97C114.213 135.619 108.529 129.027 107.761 129.027C106.993 129.027 103.491 133.882 103.491 133.882L97.4844 139.306L97.8839 150.354Z" fill="#7A4035"/>
<path d="M67.6512 117.979L59.5249 126.322L63.7801 153.843L69.4025 165.275L74.2414 165.859L95.9782 215.49L98.9737 215.475L93.0441 153.074L97.8984 150.355L97.5911 142.072L88.5892 127.091L67.6512 117.979Z" fill="#9A5244"/>
<path d="M103.509 133.882C100.989 125.738 90.1439 106.931 88.5924 105.578C86.5221 104.241 84.3124 103.133 82.0022 102.275L75.9958 82.2991C69.8511 75.7072 57.1931 71.2511 55.8413 70.8669C54.4895 70.4828 54.3051 71.4354 54.3051 71.4354C49.8502 79.5793 45.9637 106.331 45.9637 106.331L43.0143 107.315L36.8696 119.853C37.8528 129.349 44.4429 158.821 44.4429 158.821L46.7625 145.453L63.43 153.013L63.814 153.781L59.5281 126.322L67.593 117.979L88.5309 127.091L97.5482 142.072L97.4407 139.306L103.509 133.882Z" fill="#B86D58"/>
<path d="M66.2546 121.759L61.1699 126.998L64.3652 147.051L74.5346 159.851L82.8299 176.43L76.378 136.402L66.2546 121.759Z" fill="#E9967E"/>
<path d="M87.7617 129.749L82.0933 144.3L87.3316 161.449L87.7617 129.749Z" fill="#BF735B"/>
<path d="M106.659 131.792L99.4849 139.644L102.45 142.41L106.659 131.792Z" fill="#B16B54"/>
<path d="M110.483 143.179L109.807 151.031L115.522 174.002L117.657 153.75L110.483 143.179Z" fill="#B16B54"/>
<path d="M98.9569 143.286C98.9569 143.563 99.3871 152.721 99.3871 152.721L94.5942 153.75L96.1304 174.679L102.659 154.703L98.9569 143.286Z" fill="#B16B54"/>
<path d="M43.4269 107.945L38.0503 119.869L44.0106 149.248L44.5944 118.132L45.6236 107.514L43.4269 107.945Z" fill="#E9967E"/>
<path d="M54.9186 73.0642C54.9186 73.0642 47.3607 105.332 47.2378 116.964L52.768 143.424L56.2551 123.449L63.429 112.493L60.879 84.5118L54.9186 73.0642Z" fill="#E9967E"/>
<path d="M72.6454 82.3604C72.6454 82.0684 63.7817 84.4501 63.7817 84.4501L70.4641 113.522L72.6454 82.3604Z" fill="#E9967E"/>
<path d="M97.5019 139.307L103.508 133.883C100.989 125.739 90.1436 106.931 88.5921 105.579C86.5218 104.241 84.3121 103.134 82.002 102.275L89.2834 128.243L97.6094 142.073L97.5019 139.307Z" fill="#64362A"/>
<path d="M139.79 185.727C134.89 169.992 129.667 153.75 128.883 153.259C126.107 151.999 123.26 150.901 120.357 149.97L132.171 183.115L139.79 185.727Z" fill="#5D3126"/>
<path d="M93.3388 209.436L74.2442 165.859L69.4053 165.275L77.0861 202.307C77.0861 202.307 85.9191 206.133 93.3388 209.436Z" fill="#B86D58"/>
<g style="mix-blend-mode:screen" opacity="0.5">
<path d="M43.72 161.018L40.2329 163.922C40.2329 163.922 41.1085 189.215 43.4435 200.124L47.499 185.727C47.499 185.727 44.8875 171.191 43.72 161.018Z" fill="#F7BCA4"/>
</g>
<g style="mix-blend-mode:screen" opacity="0.5">
<path d="M46.9291 147.788L45.4697 160.004L49.6788 185.005L64.7486 191.443L46.9291 147.788Z" fill="#F7BCA4"/>
</g>
<path d="M115.044 179.012C115.004 168.66 116.216 158.341 118.654 148.28L122.157 146.437C122.157 146.437 122.479 128.704 123.248 123.142L128.532 116.78L130.329 116.627C130.329 116.627 136.259 101.891 139.93 97.8651C139.93 97.8651 140.176 97.3426 140.883 97.7421C141.589 98.1417 148.18 102.459 150.806 107.069L151.467 119.362C152.667 120.17 153.774 121.108 154.77 122.158C156.972 128.05 158.518 134.167 159.378 140.398C159.378 140.398 162.036 138.108 162.451 138.216C162.865 138.323 165.185 142.826 166.736 151.922C168.264 152.861 169.736 153.887 171.145 154.995C171.898 155.764 173.926 193.179 173.926 193.179L115.044 179.012Z" fill="#BF735B"/>
<path d="M135.537 153.536L133.801 145.73L125.337 139.092L122.157 146.406L118.654 148.25C116.216 158.311 115.004 168.63 115.044 178.982L143.74 185.927L138.256 154.534L135.537 153.536Z" fill="#DA927E"/>
<path d="M153.863 149.049L150.79 149.925L145.506 186.372L174.002 193.195C174.002 193.195 171.974 155.779 171.221 155.011C169.812 153.902 168.34 152.876 166.812 151.938C165.276 142.887 162.972 138.339 162.527 138.231C162.081 138.124 159.454 140.413 159.454 140.413L155.153 142.61L153.863 149.049Z" fill="#7A4035"/>
<path d="M141.096 126.292L135.305 129.918L133.907 146.222L135.535 153.536L138.208 154.535L143.738 185.881L145.443 186.296L150.712 149.848L153.862 148.972L154.845 144.193L151.788 134.405L141.096 126.292Z" fill="#9A5244"/>
<path d="M159.361 140.351C158.5 134.121 156.955 128.004 154.752 122.112C153.757 121.062 152.65 120.124 151.45 119.316L150.789 107.023C148.162 102.413 141.572 98.1107 140.866 97.6958C140.159 97.281 139.913 97.8188 139.913 97.8188C136.242 101.845 130.312 116.58 130.312 116.58L128.515 116.734L123.23 123.049C122.462 128.612 122.14 146.344 122.14 146.344L125.32 139.03L133.784 145.668L133.891 146.16L135.289 129.857L141.081 126.23L151.834 134.343L154.906 144.147L155.229 142.61L159.361 140.351Z" fill="#B86D58"/>
<path d="M139.776 128.259L136.151 130.533L135.183 142.426L139.223 151.154L141.65 161.756L143.524 138.016L139.776 128.259Z" fill="#E9967E"/>
<path d="M150.946 135.804L145.692 143.317L146.291 153.843L150.946 135.804Z" fill="#BF735B"/>
<path d="M161.449 139.599L156.257 143.072L157.563 145.069L161.449 139.599Z" fill="#B16B54"/>
<path d="M162.052 146.621L160.577 151.015L160.654 164.921L164.679 153.658L162.052 146.621Z" fill="#B16B54"/>
<path d="M155.461 145.084C155.461 145.238 154.385 150.539 154.385 150.539L151.513 150.447L149.439 162.601L155.937 152.122L155.461 145.084Z" fill="#B16B54"/>
<path d="M128.672 117.21L123.941 123.264L123.265 140.858L127.92 123.172L129.978 117.256L128.672 117.21Z" fill="#E9967E"/>
<path d="M140.069 98.8792C140.069 98.8792 131.267 116.258 129.577 122.927L129.04 138.738L133.786 127.859L139.409 122.604L141.867 106.209L140.069 98.8792Z" fill="#E9967E"/>
<path d="M148.903 106.654C148.903 106.485 143.542 106.654 143.542 106.654L143.327 124.14L148.903 106.654Z" fill="#E9967E"/>
<path d="M155.153 142.611L159.346 140.352C158.486 134.121 156.94 128.004 154.738 122.113C153.743 121.062 152.635 120.124 151.435 119.316L152.08 135.22L154.907 144.285L155.153 142.611Z" fill="#64362A"/>
<path d="M172.882 174.986C172.267 165.321 171.545 155.333 171.161 155.011C169.752 153.902 168.28 152.876 166.752 151.938L168.903 172.497L172.882 174.986Z" fill="#5D3126"/>
<path d="M143.063 182.055L138.254 154.534L135.581 153.536L134.859 175.739L143.063 182.055Z" fill="#B86D58"/>
<g style="mix-blend-mode:screen" opacity="0.5">
<path d="M121.465 147.512L119.068 148.695C119.068 148.695 115.996 163.246 115.873 169.792L120.19 162.109C120.19 162.109 120.712 153.504 121.465 147.512Z" fill="#F7BCA4"/>
</g>
<g style="mix-blend-mode:screen" opacity="0.5">
<path d="M125.122 140.428L122.602 147.189L121.542 162.048L129.239 167.826L125.122 140.428Z" fill="#F7BCA4"/>
</g>
<path d="M38.4972 222.943C36.7576 223.221 35.1149 223.929 33.7175 225.002C32.3201 226.075 31.2121 227.48 30.4938 229.089C30.4938 229.089 29.1881 221.084 32.8288 218.763C32.8288 218.763 28.2203 217.596 25.1479 220.3C25.7631 218.337 27.0427 216.649 28.7669 215.528C30.491 214.406 32.5519 213.92 34.5954 214.154C34.5954 214.154 32.7059 209.544 25.3784 209.636C26.8378 208.777 28.4751 208.265 30.1639 208.14C31.8526 208.014 33.5476 208.279 35.1177 208.914C33.8323 206.745 33.014 204.332 32.7151 201.829C32.4161 199.326 32.6432 196.788 33.3818 194.378C33.3818 194.378 34.2421 202.23 38.3129 205.718C38.3129 205.718 36.2852 195.1 44.7187 189.43C44.234 193.454 44.4262 197.531 45.2871 201.492C46.2918 199.356 47.7915 197.49 49.6617 196.049C51.5318 194.609 53.7186 193.636 56.0403 193.21C54.5591 194.917 53.422 196.895 52.6914 199.034C54.6011 197.947 56.7478 197.346 58.9436 197.282C57.578 198.741 56.5767 200.503 56.0214 202.423C55.4661 204.343 55.3725 206.367 55.7484 208.33L38.4972 222.943Z" fill="#3D9919"/>
<path d="M38.4972 222.943C36.7576 223.221 35.1149 223.929 33.7175 225.002C32.3201 226.075 31.2121 227.48 30.4938 229.089C30.4938 229.089 29.1881 221.084 32.8288 218.763C32.8288 218.763 28.2203 217.596 25.1479 220.3C25.7631 218.337 27.0427 216.649 28.7669 215.528C30.491 214.406 32.5519 213.92 34.5954 214.154C34.5954 214.154 32.7059 209.544 25.3784 209.636C26.8378 208.777 28.4751 208.265 30.1639 208.14C31.8526 208.014 33.5476 208.279 35.1177 208.914C33.8323 206.745 33.014 204.332 32.7151 201.829C32.4161 199.326 32.6432 196.788 33.3818 194.378C33.3818 194.378 34.2421 202.23 38.3129 205.718C38.3129 205.718 36.2852 195.1 44.7187 189.43C44.234 193.454 44.4262 197.531 45.2871 201.492C46.2918 199.356 47.7915 197.49 49.6617 196.049C51.5318 194.609 53.7186 193.636 56.0403 193.21C54.5591 194.917 53.422 196.895 52.6914 199.034C54.6011 197.947 56.7478 197.346 58.9436 197.282C57.578 198.741 56.5767 200.503 56.0214 202.423C55.4661 204.343 55.3725 206.367 55.7484 208.33L38.4972 222.943Z" fill="#3D9919"/>
<path d="M41.8939 220.33C41.8939 220.33 34.5203 219.562 31.8167 224.94C31.8167 224.94 34.4281 216.888 42.9539 216.596C42.9539 216.596 35.9797 213.308 30.0654 216.212C30.0654 216.212 34.9044 212.816 43.1382 214.461C39.687 212.39 36.0449 210.656 32.2621 209.282C34.4901 209.046 36.7391 209.451 38.7448 210.45C38.7448 210.45 33.7061 202.89 33.614 198.326C33.614 198.326 35.6571 206.962 41.1719 209.866C41.1719 209.866 36.5634 197.574 44.2443 190.859C44.2443 190.859 42.8771 203.366 46.7636 208.791C46.7636 208.791 48.2076 197.174 54.214 194.654C53.0087 195.844 52.0534 197.263 51.4045 198.828C50.7555 200.393 50.4259 202.072 50.435 203.766C50.435 203.766 53.5073 199.294 56.7333 198.526C56.7333 198.526 53.8299 202.69 54.8899 206.762L41.8939 220.33Z" fill="#007634"/>
<path d="M272.902 228.259C256.112 195.592 208.921 172.097 153.465 172.097C98.0095 172.097 50.8031 195.622 34.0128 228.29C32.8404 230.611 31.8143 233.002 30.9404 235.451C44.1668 241.136 94.0155 245.362 153.511 245.362C213.007 245.362 262.856 241.136 276.082 235.451C275.174 232.989 274.112 230.587 272.902 228.259Z" fill="#F9CA67"/>
<path d="M33.0278 230.288C33.3351 229.612 33.673 228.936 34.011 228.26C33.673 228.951 33.3351 229.612 33.0278 230.288Z" fill="#E7A068"/>
<path d="M275.053 232.931C275.268 233.423 275.468 233.93 275.652 234.468C273.604 234.957 271.466 234.93 269.43 234.391C266.435 233.73 263.9 231.825 260.874 231.164C259.894 230.823 258.833 230.787 257.832 231.061C256.831 231.335 255.936 231.907 255.267 232.7C254.56 233.669 254.176 234.821 253.408 235.774C252.852 236.351 252.148 236.764 251.373 236.967C250.598 237.17 249.782 237.156 249.015 236.926C248.087 236.553 247.184 236.122 246.311 235.635C244.514 234.698 242.517 233.223 240.428 233.069C237.862 232.9 237.54 234.775 236.894 236.726C235.512 240.798 229.936 238.57 227.339 237.356C224.743 236.142 221.748 233.607 218.737 234.683C217.201 235.205 216.156 236.634 214.727 237.326C212.742 238.208 210.554 238.532 208.398 238.263C204.389 237.863 200.718 235.835 197.077 234.099C193.792 232.307 190.221 231.101 186.523 230.534C178.843 229.673 172.882 234.191 166.108 236.68C163.221 237.824 160.133 238.373 157.029 238.294L155.493 238.186C152.644 237.478 149.934 236.299 147.474 234.698C141.621 230.918 136.859 223.819 129.393 223.128C125.691 222.774 121.713 224.249 118.225 225.432C114.324 226.769 110.637 228.613 106.781 230.042C104.984 230.718 102.418 231.579 100.79 230.119C99.9911 229.397 99.4535 228.214 98.3782 227.86C97.3029 227.507 95.8281 228.736 95.0754 229.043C94.4172 229.287 93.7076 229.359 93.0139 229.251C92.3202 229.144 91.6655 228.861 91.1121 228.429C90.4174 227.778 89.6611 227.197 88.8539 226.692C84.2454 223.804 78.5616 224.864 73.7073 226.692C67.9467 228.767 62.6469 231.948 56.8095 233.93C54.2134 234.806 50.8031 235.789 48.0841 234.944C45.8566 234.237 45.6569 230.918 44.2744 229.32C42.0623 226.754 38.483 228.091 36.0712 229.52C34.6691 230.376 33.3476 231.359 32.1233 232.455C31.7085 233.453 31.3091 234.452 30.9404 235.528C44.1668 241.213 94.0155 245.439 153.511 245.439C213.007 245.439 262.856 241.213 276.082 235.528C275.729 234.575 275.406 233.745 275.053 232.931Z" fill="#3E61CA"/>
<path d="M273.698 229.873L274.159 230.872C274.005 230.487 273.867 230.211 273.698 229.873Z" fill="#E7A068"/>
<path d="M275.65 234.421C273.602 234.911 271.464 234.884 269.429 234.345C266.433 233.684 263.898 231.779 260.872 231.118C259.892 230.777 258.831 230.741 257.83 231.015C256.829 231.289 255.935 231.861 255.265 232.654C254.559 233.622 254.175 234.775 253.406 235.728C252.851 236.305 252.146 236.717 251.371 236.921C250.596 237.124 249.78 237.11 249.013 236.88C248.085 236.507 247.182 236.076 246.309 235.589C244.512 234.652 242.515 233.177 240.426 233.023C237.86 232.854 237.538 234.729 236.893 236.68C235.51 240.752 229.934 238.524 227.338 237.31C224.742 236.096 221.746 233.561 218.735 234.637C217.199 235.159 216.154 236.588 214.726 237.279C212.741 238.162 210.552 238.486 208.397 238.217C204.387 237.817 200.716 235.789 197.075 234.053C193.791 232.261 190.22 231.055 186.522 230.488C178.841 229.627 172.881 234.145 166.106 236.634C163.219 237.778 160.131 238.327 157.027 238.248L155.491 238.14C152.646 237.446 149.936 236.283 147.472 234.698C141.62 230.918 136.857 223.819 129.392 223.128C125.689 222.774 121.711 224.249 118.224 225.432C114.322 226.769 110.635 228.613 106.779 230.042C104.982 230.718 102.417 231.579 100.788 230.119C99.9894 229.397 99.4518 228.214 98.3764 227.86C97.3011 227.507 95.8264 228.736 95.0737 229.043C94.4155 229.287 93.7058 229.359 93.0121 229.251C92.3185 229.144 91.6638 228.861 91.1104 228.429C90.4157 227.778 89.6594 227.197 88.8522 226.692C84.2437 223.804 78.5599 224.864 73.7056 226.692C67.945 228.767 62.6452 231.948 56.8078 233.93C54.2116 234.806 50.8013 235.789 48.0823 234.944C45.8549 234.237 45.6552 230.918 44.2726 229.32C42.2142 226.923 38.9575 227.937 36.5918 229.243C38.9575 228.582 41.4461 228.552 42.3524 230.78C44.2419 235.589 43.6582 239.999 52.3836 238.34C61.109 236.68 81.4479 223.957 85.657 226.708C89.8661 229.458 89.5896 234.713 93.7987 233.546C98.0078 232.378 97.5776 229.474 100.635 231.656C103.692 233.838 100.635 243.579 116.181 238.493C131.727 233.407 134.784 225.847 140.606 230.641C146.428 235.436 147.58 244.747 164.877 239.661C182.174 234.575 185.661 231.978 191.76 236.895C197.859 241.812 206 243.579 213.712 239.216C221.423 234.852 221.992 235.144 226.508 237.771C231.024 240.399 239.581 241.398 241.624 238.201C243.667 235.005 248.445 240.814 251.64 238.048C254.835 235.282 257.462 236.019 262.255 236.311C265.327 236.496 271.349 236.926 275.973 235.021C275.696 234.314 275.42 233.607 275.128 232.916C275.266 233.423 275.466 233.93 275.65 234.421Z" fill="#69AEFD"/>
<path d="M39.6499 222.375C39.6499 222.375 73.4456 169.731 162.62 172.943C162.62 172.943 193.436 174.679 217.262 186.019C217.262 186.019 228.89 190.967 209.12 188.355C189.349 185.742 152.743 181.655 169.594 189.799C186.446 197.943 202.192 212.848 173.957 208.699C115.245 199.971 99.7448 206.394 107.671 213.939C113.493 219.455 101.081 227.845 93.1392 225.863C87.3325 224.326 88.1006 214.523 71.5407 221.499C59.6662 226.493 51.2787 235.743 47.7916 229.351C44.3045 222.959 46.6395 219.455 39.6499 222.375Z" fill="#FFE38B"/>
<g style="mix-blend-mode:multiply" opacity="0.7">
<path d="M237.035 199.111C226.573 194.071 200.412 192.227 214.745 203.859C229.077 215.491 217.817 223.435 202.548 219.563C187.278 215.69 146.339 210.051 157.584 217.811C168.829 225.571 171.41 229.243 161.455 229.827C151.501 230.411 160.303 235.651 166.693 232.9C173.084 230.15 176.387 223.604 190.135 228.29C203.884 232.977 204.668 238.77 211.642 235.466C218.616 232.163 219.768 229.658 225.974 232.946C232.18 236.234 229.661 225.97 238.955 228.69C248.249 231.41 252.135 235.082 254.47 228.49C256.805 221.898 268.296 234.636 269.586 230.81C270.876 226.984 258.756 209.559 237.035 199.111Z" fill="#F9CA67"/>
</g>
<g style="mix-blend-mode:multiply" opacity="0.7">
<path d="M59.5563 218.195C58.6192 219.563 57.206 220.223 56.3918 219.732C55.5776 219.24 55.6852 217.626 56.6069 216.259C57.5286 214.891 58.9572 214.231 59.7714 214.722C60.5855 215.214 60.478 216.827 59.5563 218.195Z" fill="#DC9C57"/>
<path d="M65.6529 217.657C64.977 218.625 63.9631 219.102 63.3948 218.702C62.8264 218.303 62.8725 217.165 63.5484 216.213C64.2243 215.26 65.2228 214.768 65.8065 215.168C66.3903 215.567 66.3135 216.658 65.6529 217.657Z" fill="#DC9C57"/>
</g>
<g style="mix-blend-mode:multiply" opacity="0.7">
<path d="M124.43 184.544C123.846 185.42 122.893 185.835 122.433 185.481C121.972 185.128 121.987 184.145 122.571 183.284C123.155 182.424 124.107 182.009 124.568 182.347C125.029 182.685 125.059 183.684 124.43 184.544Z" fill="#DC9C57"/>
<path d="M128.33 184.206C127.9 184.821 127.27 185.113 126.901 184.867C126.533 184.621 126.579 183.914 126.994 183.33C127.408 182.746 128.053 182.408 128.422 182.67C128.791 182.931 128.745 183.592 128.33 184.206Z" fill="#DC9C57"/>
</g>
<g style="mix-blend-mode:multiply" opacity="0.7">
<path d="M200.807 198.05C200.223 198.911 199.271 199.325 198.825 198.972C198.38 198.619 198.364 197.651 198.948 196.775C199.532 195.899 200.484 195.499 200.945 195.853C201.406 196.206 201.406 197.19 200.807 198.05Z" fill="#DC9C57"/>
<path d="M204.666 197.696C204.251 198.326 203.606 198.618 203.237 198.372C202.869 198.126 202.915 197.404 203.345 196.836C203.775 196.267 204.405 195.929 204.758 196.175C205.111 196.421 205.096 197.082 204.666 197.696Z" fill="#DC9C57"/>
</g>
<g style="mix-blend-mode:multiply" opacity="0.7">
<path d="M212.958 229.104C212.375 229.965 211.422 230.38 210.961 230.042C210.501 229.704 210.516 228.705 211.1 227.844C211.683 226.984 212.636 226.554 213.097 226.907C213.558 227.261 213.527 228.244 212.958 229.104Z" fill="#DC9C57"/>
<path d="M216.812 228.766C216.397 229.381 215.752 229.673 215.383 229.427C215.015 229.181 215.061 228.474 215.491 227.89C215.921 227.306 216.535 226.968 216.904 227.214C217.273 227.46 217.242 228.151 216.812 228.766Z" fill="#DC9C57"/>
</g>
<g style="mix-blend-mode:multiply" opacity="0.7">
<path d="M237.798 208.192C237.245 209.022 236.4 209.406 235.924 209.083C235.448 208.761 235.494 207.823 236.047 206.993C236.6 206.164 237.445 205.78 237.937 206.118C238.428 206.456 238.367 207.439 237.798 208.192Z" fill="#DC9C57"/>
<path d="M241.458 207.869C241.059 208.453 240.46 208.745 240.106 208.499C239.753 208.253 239.799 207.593 240.198 206.963C240.598 206.333 241.197 206.102 241.55 206.333C241.904 206.563 241.857 207.285 241.458 207.869Z" fill="#DC9C57"/>
</g>
<g style="mix-blend-mode:multiply" opacity="0.7">
<path d="M128.9 214.323C128.9 214.323 128.808 212.095 126.857 212.971C124.906 213.847 125.121 219.947 129.192 220.423C133.262 220.9 136.719 213.939 132.003 215.122C132.003 215.122 132.003 212.387 128.9 214.323Z" fill="#F9CA67"/>
</g>
<path d="M128.223 213.585C128.223 213.585 128.115 211.357 126.179 212.233C124.244 213.109 124.428 219.271 128.514 219.732C132.601 220.193 135.965 213.247 131.31 214.4C131.31 214.415 131.31 211.711 128.223 213.585Z" fill="#B588A5"/>
<g style="mix-blend-mode:multiply">
<path d="M131.315 214.415C131.315 214.415 131.315 211.711 128.242 213.647C128.242 213.647 128.242 212.11 126.998 212.11C127.242 212.29 127.444 212.52 127.589 212.785C127.735 213.051 127.822 213.345 127.843 213.647C127.963 215.548 127.708 217.453 127.09 219.255C127.532 219.516 128.024 219.679 128.534 219.732C132.574 220.239 135.969 213.263 131.315 214.415ZM130.255 215.952C129.978 217.165 129.241 218.656 128.181 218.072C127.628 217.749 127.705 216.643 127.781 216.136C127.943 215.223 128.396 214.388 129.072 213.754C129.855 213.232 130.27 214.123 130.378 214.768C130.403 215.167 130.361 215.567 130.255 215.952ZM131.376 216.351C131.301 216.351 131.229 216.323 131.175 216.271C131.121 216.22 131.088 216.149 131.084 216.074C131.061 215.857 131.104 215.638 131.208 215.446C131.313 215.253 131.473 215.098 131.668 214.999C131.713 214.975 131.763 214.963 131.814 214.964C131.865 214.965 131.914 214.98 131.958 215.006C132.001 215.033 132.037 215.07 132.062 215.115C132.086 215.159 132.099 215.209 132.098 215.26C132.129 215.29 132.153 215.326 132.169 215.366C132.184 215.405 132.192 215.448 132.19 215.491C132.207 215.603 132.198 215.719 132.164 215.828C132.129 215.936 132.071 216.036 131.992 216.119C131.914 216.202 131.818 216.266 131.711 216.306C131.604 216.346 131.49 216.362 131.376 216.351Z" fill="#B588A5"/>
</g>
<g style="mix-blend-mode:multiply" opacity="0.7">
<path d="M159.512 228.183C159.512 228.183 159.512 227.307 158.16 227.691C156.809 228.075 157.577 233.315 160.772 233.223C163.967 233.131 164.167 228.859 163.291 228.613C163.047 228.526 162.783 228.507 162.529 228.559C162.274 228.61 162.039 228.73 161.847 228.905C161.847 228.905 161.74 225.878 159.512 228.183Z" fill="#F9CA67"/>
</g>
<path d="M158.838 227.507C158.838 227.507 158.838 226.631 157.486 227.015C156.134 227.399 156.902 232.639 160.098 232.547C163.293 232.455 163.492 228.183 162.617 227.937C162.358 227.844 162.079 227.822 161.809 227.873C161.539 227.924 161.287 228.047 161.081 228.229C161.081 228.229 161.065 225.171 158.838 227.507Z" fill="#B588A5"/>
<g style="mix-blend-mode:multiply">
<path d="M162.617 227.891C162.359 227.798 162.08 227.776 161.809 227.827C161.539 227.878 161.288 228.001 161.081 228.183C161.081 228.183 160.989 225.11 158.762 227.507C158.762 227.507 158.762 226.631 157.41 227.015C157.27 227.069 157.148 227.159 157.053 227.274C156.959 227.39 156.897 227.529 156.872 227.676C157.13 227.516 157.436 227.455 157.735 227.503C158.034 227.551 158.306 227.705 158.5 227.937C158.63 228.097 158.748 228.267 158.854 228.444C158.879 228.244 158.958 228.053 159.082 227.894C159.207 227.734 159.372 227.611 159.56 227.538C160.513 227.23 160.62 228.936 160.62 229.489C160.62 230.042 160.62 232.101 159.484 231.594C159.339 231.519 159.221 231.401 159.146 231.256C159.077 231.477 158.955 231.677 158.792 231.84C158.736 231.896 158.669 231.94 158.595 231.969C158.521 231.998 158.442 232.012 158.362 232.009C158.837 232.374 159.423 232.564 160.021 232.547C163.293 232.455 163.493 228.183 162.617 227.891ZM161.926 230.549C161.788 230.78 161.45 231.057 161.173 230.903C161.079 230.831 161.009 230.733 160.97 230.62C160.932 230.508 160.928 230.387 160.958 230.273C160.996 229.612 161.225 228.976 161.619 228.444C161.649 228.409 161.688 228.383 161.732 228.369C161.776 228.354 161.823 228.351 161.868 228.36C161.914 228.37 161.956 228.391 161.99 228.422C162.025 228.453 162.05 228.492 162.064 228.537C162.694 228.951 162.233 230.058 161.926 230.488V230.549Z" fill="#B588A5"/>
</g>
<g style="mix-blend-mode:multiply" opacity="0.7">
<path d="M249.213 218.84C249.213 218.84 248.89 218.18 247.999 218.963C247.108 219.747 249.628 223.435 252.009 222.19C254.39 220.946 252.977 217.657 252.208 217.749C251.991 217.772 251.784 217.854 251.61 217.987C251.437 218.12 251.304 218.298 251.225 218.502C251.225 218.502 250.042 216.259 249.213 218.84Z" fill="#F9CA67"/>
</g>
<path d="M248.446 218.579C248.446 218.579 248.123 217.918 247.248 218.702C246.372 219.486 248.861 223.173 251.242 221.929C253.623 220.684 252.225 217.319 251.457 217.488C251.238 217.513 251.03 217.595 250.855 217.728C250.679 217.86 250.542 218.037 250.458 218.241C250.458 218.241 249.291 215.997 248.446 218.579Z" fill="#B588A5"/>
<g style="mix-blend-mode:multiply">
<path d="M251.451 217.488C251.232 217.513 251.025 217.595 250.849 217.728C250.673 217.86 250.536 218.037 250.453 218.241C250.453 218.241 249.285 215.997 248.44 218.579C248.44 218.579 248.118 217.918 247.242 218.702C247.156 218.796 247.096 218.91 247.067 219.034C247.037 219.157 247.039 219.286 247.073 219.409C247.207 219.193 247.415 219.033 247.658 218.96C247.901 218.886 248.163 218.904 248.394 219.009C248.56 219.066 248.715 219.149 248.855 219.255C248.798 219.093 248.786 218.919 248.821 218.751C248.857 218.583 248.937 218.428 249.055 218.302C249.669 217.734 250.376 218.978 250.591 219.393C250.806 219.808 251.497 221.406 250.514 221.406C250.374 221.405 250.238 221.356 250.13 221.268C250.169 221.455 250.169 221.649 250.13 221.836C250.105 221.901 250.068 221.96 250.021 222.01C249.973 222.06 249.916 222.1 249.853 222.128C250.372 222.257 250.921 222.185 251.39 221.929C253.632 220.684 252.219 217.38 251.451 217.488ZM251.927 219.731C251.927 219.962 251.758 220.3 251.482 220.285C251.205 220.269 251.144 220.069 251.082 219.885C250.874 219.369 250.816 218.804 250.913 218.256C250.925 218.218 250.947 218.184 250.976 218.157C251.005 218.13 251.041 218.111 251.079 218.102C251.118 218.092 251.158 218.093 251.197 218.104C251.235 218.115 251.27 218.136 251.297 218.164C251.927 218.272 251.927 219.27 251.927 219.731Z" fill="#B588A5"/>
</g>
<path d="M109.067 246.545C109.067 246.545 90.3568 247.743 94.8424 251.062C99.3281 254.381 138.439 255.38 143.355 252.292C148.27 249.203 124.429 245.208 109.067 246.545Z" fill="#69AEFD"/>
<path d="M263.807 242.242C263.807 242.242 251.057 243.057 254.113 245.315C257.17 247.574 283.792 248.25 287.141 246.145C290.49 244.04 274.299 241.336 263.807 242.242Z" fill="#69AEFD"/>
<path d="M241.301 253.705C241.301 253.705 235.571 254.059 236.938 255.088C238.306 256.118 250.272 256.41 251.778 255.457C253.283 254.504 246.017 253.29 241.301 253.705Z" fill="#69AEFD"/>
<path d="M213.019 246.207C213.019 246.207 208.411 246.499 209.563 247.298C210.715 248.097 220.147 248.343 221.345 247.59C222.543 246.837 216.767 245.854 213.019 246.207Z" fill="#69AEFD"/>
<path d="M68.2808 241.243C68.2808 241.243 65.2085 241.443 65.9151 241.996C68.5683 242.601 71.3156 242.669 73.9954 242.196C74.8095 241.735 70.8462 241.074 68.2808 241.243Z" fill="#69AEFD"/>
<path d="M82.9557 252.568C82.9557 252.568 80.0831 252.753 80.7744 253.26C83.2265 253.813 85.7637 253.876 88.2401 253.444C89.1004 252.968 85.3675 252.369 82.9557 252.568Z" fill="#69AEFD"/>
<path d="M30.8282 236.634C30.8282 236.634 25.8356 236.957 27.0338 237.848C28.232 238.739 38.6933 239.001 39.9991 238.171C41.3048 237.341 34.9605 236.235 30.8282 236.634Z" fill="#69AEFD"/>
<path d="M171.451 242.781C171.451 242.781 167.503 243.026 168.379 243.733C169.254 244.44 177.596 244.64 178.61 243.994C179.623 243.349 174.708 242.458 171.451 242.781Z" fill="#69AEFD"/>
<path d="M181.467 245.177C181.467 245.177 179.024 245.331 179.608 245.761C181.676 246.232 183.816 246.29 185.906 245.93C186.536 245.531 183.449 245.008 181.467 245.177Z" fill="#69AEFD"/>
<path d="M52.0648 236.127C45.5668 237.663 45.659 233.223 44.5069 230.611C44.3565 230.266 44.1657 229.941 43.9385 229.643C44.4925 231.13 44.8689 232.677 45.0599 234.252C45.152 234.852 45.2442 235.497 45.3671 236.173C45.8181 236.759 46.413 237.219 47.0941 237.507C47.7751 237.795 48.519 237.902 49.2536 237.817C56.4275 238.386 69.2238 229.566 69.2238 229.566C63.6818 232.192 57.945 234.385 52.0648 236.127Z" fill="#FFFEFA"/>
<path d="M111.94 229.535C111.94 229.535 128.116 220.039 134.614 225.571C134.614 225.571 130.159 224.203 111.94 229.535Z" fill="#FFFEFA"/>
<path d="M162.833 238.463C164.838 238.084 166.771 237.395 168.563 236.419C172.342 234.575 181.159 230.503 183.925 231.287L184.508 232.547C181.029 232.389 177.564 233.085 174.416 234.575C168.824 237.095 166.197 238.355 162.833 238.463Z" fill="#FFFEFA"/>
</svg>
