<svg width="288" height="39" viewBox="0 0 288 39" fill="none" xmlns="http://www.w3.org/2000/svg">
<path d="M0 8H80.8" stroke="#D71118" stroke-width="2.4"/>
<path d="M0 19.2H80.8" stroke="#D71118" stroke-width="2.4"/>
<path d="M0 30.4H80.8" stroke="#D71118" stroke-width="2.4"/>
<path d="M104.8 5.59998L107.853 14.9973H117.734L109.74 20.8052L112.794 30.2026L104.8 24.3947L96.8061 30.2026L99.8595 20.8052L91.8656 14.9973H101.747L104.8 5.59998Z" fill="#003399"/>
<path d="M144 0L148.311 13.2669H162.26L150.975 21.4663L155.285 34.7331L144 26.5337L132.715 34.7331L137.025 21.4663L125.74 13.2669H139.689L144 0Z" fill="#003399"/>
<path d="M183.2 5.59998L186.253 14.9973H196.134L188.141 20.8052L191.194 30.2026L183.2 24.3947L175.206 30.2026L178.26 20.8052L170.266 14.9973H180.147L183.2 5.59998Z" fill="#003399"/>
<path d="M207.2 8H288" stroke="#D71118" stroke-width="2.4"/>
<path d="M207.2 19.2H288" stroke="#D71118" stroke-width="2.4"/>
<path d="M207.2 30.4H288" stroke="#D71118" stroke-width="2.4"/>
</svg>
